<svg width="677.5700439453125px" height="192.79999999999998px" xmlns="http://www.w3.org/2000/svg" viewBox="-88.78502197265624 -21.39999999999999 677.5700439453125 192.79999999999998" style="background: rgb(0, 0, 0);" preserveAspectRatio="xMidYMid"><defs><filter id="editing-vr"><feFlood flood-color="#ff0404" flood-opacity="0.7" result="c1"></feFlood><feFlood flood-color="#1b1b1b" flood-opacity="0.7" result="c3"></feFlood><feComposite operator="in" in="c1" in2="SourceAlpha" result="text-c1"></feComposite><feComposite operator="in" in="c3" in2="SourceAlpha" result="text-c3"></feComposite><feOffset in="text-c1" dx="-3" dy="-2" result="text1"></feOffset><feOffset in="text-c3" dx="3" dy="2" result="text3"></feOffset><feBlend in="SourceGraphic" in2="text1" mode="multiply" result="text4"></feBlend><feBlend in="text4" in2="text3" mode="multiply"></feBlend></filter></defs><g filter="url(#editing-vr)"><g transform="translate(7.6950109004974365, 125.74000549316406)"><path d="M58.75-22.56L58.75-22.56L58.75-22.56Q61.59-20.49 61.59-16.08L61.59-16.08L61.59-16.08Q61.59-11.66 59.68-8.56L59.68-8.56L59.68-8.56Q57.77-5.45 54.06-3.05L54.06-3.05L54.06-3.05Q46.11 2.07 32.21 2.07L32.21 2.07L32.21 2.07Q18.31 2.07 10.74-5.18L10.74-5.18L10.74-5.18Q3.16-12.43 3.16-25.29L3.16-25.29L3.16-25.29Q3.16-43.49 12.64-57.33L12.64-57.33L12.64-57.33Q19.84-67.58 32.70-71.94L32.70-71.94L32.70-71.94Q39.35-74.12 45.89-74.12L45.89-74.12L45.89-74.12Q52.43-74.12 56.46-73.25L56.46-73.25L56.46-73.25Q60.49-72.38 63.55-70.63L63.55-70.63L63.55-70.63Q70.20-66.82 70.20-60.71L70.20-60.71L70.20-60.71Q70.20-55.15 64.96-51.01L64.96-51.01L64.96-51.01Q60.17-47.31 56.24-47.31L56.24-47.31L56.24-47.31Q52.32-47.31 50.69-47.85L50.69-47.85L50.69-47.85Q51.12-51.77 51.12-54.34L51.12-54.34L51.12-54.34Q51.12-56.90 51.01-58.75L51.01-58.75L51.01-58.75Q50.90-60.60 50.36-62.35L50.36-62.35L50.36-62.35Q49.27-66.38 45.94-66.38L45.94-66.38L45.94-66.38Q42.62-66.38 39.29-63.27L39.29-63.27L39.29-63.27Q35.97-60.17 33.14-54.94L33.14-54.94L33.14-54.94Q26.70-43.05 26.70-28.99L26.70-28.99L26.70-28.99Q26.70-22.24 30.52-18.37L30.52-18.37L30.52-18.37Q34.34-14.50 42.51-14.50L42.51-14.50L42.51-14.50Q48.61-14.50 54.39-18.53L54.39-18.53L54.39-18.53Q56.90-20.27 58.75-22.56ZM75.37-3.27L75.37-3.27L75.37-3.27Q72.81-6.10 71.67-10.57L71.67-10.57L71.67-10.57Q70.52-15.04 70.52-22.34L70.52-22.34L70.52-22.34Q70.52-29.65 73.03-36.30L73.03-36.30L73.03-36.30Q75.54-42.95 80.11-47.74L80.11-47.74L80.11-47.74Q89.49-57.77 104.97-57.77L104.97-57.77L104.97-57.77Q110.53-57.77 114.56-55.92L114.56-55.92L133.20-57.77L125.13-15.26L125.13-15.26Q124.81-13.95 124.81-11.55L124.81-11.55L124.81-11.55Q124.81-9.16 126.28-7.63L126.28-7.63L126.28-7.63Q127.75-6.10 129.93-5.89L129.93-5.89L129.93-5.89Q128.84-2.18 124.86 0L124.86 0L124.86 0Q120.88 2.18 116.41 2.18L116.41 2.18L116.41 2.18Q111.94 2.18 108.95 0.49L108.95 0.49L108.95 0.49Q105.95-1.20 105.08-4.03L105.08-4.03L105.08-4.03Q103.33-1.31 99.63 0.44L99.63 0.44L99.63 0.44Q95.92 2.18 90.96 2.18L90.96 2.18L90.96 2.18Q86.00 2.18 81.97 0.87L81.97 0.87L81.97 0.87Q77.94-0.44 75.37-3.27ZM98.37-47.52L98.37-47.52L98.37-47.52Q97.12-45.56 96.03-42.24L96.03-42.24L96.03-42.24Q94.94-38.91 93.14-30.03L93.14-30.03L93.14-30.03Q91.34-21.15 91.34-14.82L91.34-14.82L91.34-14.82Q91.34-8.50 92.32-6.65L92.32-6.65L92.32-6.65Q93.30-4.80 95.05-4.80L95.05-4.80L95.05-4.80Q98.54-4.80 101.10-8.12L101.10-8.12L101.10-8.12Q103.66-11.45 104.64-17.33L104.64-17.33L110.42-49.27L110.42-49.27Q108.13-51.23 105.46-51.23L105.46-51.23L105.46-51.23Q102.79-51.23 101.21-50.36L101.21-50.36L101.21-50.36Q99.63-49.49 98.37-47.52ZM165.13-6.00L165.13-6.00L165.13-6.00Q161.76 2.18 150.97 2.18L150.97 2.18L150.97 2.18Q145.51 2.18 142.03-1.64L142.03-1.64L142.03-1.64Q139.19-4.80 139.19-8.39L139.19-8.39L139.19-8.39Q139.19-16.57 143.01-34.44L143.01-34.44L150.97-76.30L173.09-78.48L162.52-23.33L162.52-23.33Q160.67-15.26 160.67-12.43L160.67-12.43L160.67-12.43Q160.67-6.21 165.13-6.00ZM179.14-3.27L179.14-3.27L179.14-3.27Q176.58-6.10 175.44-10.57L175.44-10.57L175.44-10.57Q174.29-15.04 174.29-22.34L174.29-22.34L174.29-22.34Q174.29-29.65 176.80-36.30L176.80-36.30L176.80-36.30Q179.31-42.95 183.88-47.74L183.88-47.74L183.88-47.74Q193.26-57.77 208.74-57.77L208.74-57.77L208.74-57.77Q214.29-57.77 218.33-55.92L218.33-55.92L236.97-57.77L228.90-15.26L228.90-15.26Q228.57-13.95 228.57-11.55L228.57-11.55L228.57-11.55Q228.57-9.16 230.04-7.63L230.04-7.63L230.04-7.63Q231.52-6.10 233.70-5.89L233.70-5.89L233.70-5.89Q232.61-2.18 228.63 0L228.63 0L228.63 0Q224.65 2.18 220.18 2.18L220.18 2.18L220.18 2.18Q215.71 2.18 212.71 0.49L212.71 0.49L212.71 0.49Q209.72-1.20 208.84-4.03L208.84-4.03L208.84-4.03Q207.10-1.31 203.39 0.44L203.39 0.44L203.39 0.44Q199.69 2.18 194.73 2.18L194.73 2.18L194.73 2.18Q189.77 2.18 185.74 0.87L185.74 0.87L185.74 0.87Q181.70-0.44 179.14-3.27ZM202.14-47.52L202.14-47.52L202.14-47.52Q200.89-45.56 199.80-42.24L199.80-42.24L199.80-42.24Q198.71-38.91 196.91-30.03L196.91-30.03L196.91-30.03Q195.11-21.15 195.11-14.82L195.11-14.82L195.11-14.82Q195.11-8.50 196.09-6.65L196.09-6.65L196.09-6.65Q197.07-4.80 198.82-4.80L198.82-4.80L198.82-4.80Q202.30-4.80 204.87-8.12L204.87-8.12L204.87-8.12Q207.43-11.45 208.41-17.33L208.41-17.33L214.19-49.27L214.19-49.27Q211.90-51.23 209.23-51.23L209.23-51.23L209.23-51.23Q206.56-51.23 204.97-50.36L204.97-50.36L204.97-50.36Q203.39-49.49 202.14-47.52ZM321.33 2.18L321.33 2.18L321.33 2.18Q308.14 2.18 308.14-8.07L308.14-8.07L308.14-8.07Q308.14-12.54 310.05-21.20L310.05-21.20L310.05-21.20Q311.96-29.87 312.61-33.35L312.61-33.35L312.61-33.35Q314.14-41.31 314.14-43.82L314.14-43.82L314.14-43.82Q314.14-49.38 310.00-49.38L310.00-49.38L310.00-49.38Q307.27-49.38 304.65-45.62L304.65-45.62L304.65-45.62Q302.04-41.86 300.84-34.34L300.84-34.34L294.08 0L272.83 2.18L278.71-27.47L278.71-27.47Q279.69-32.37 280.57-37.93L280.57-37.93L280.57-37.93Q281.44-43.49 281.44-44.36L281.44-44.36L281.44-44.36Q281.44-49.38 277.73-49.38L277.73-49.38L277.73-49.38Q275.23-49.38 272.50-45.67L272.50-45.67L272.50-45.67Q269.77-41.97 268.25-34.34L268.25-34.34L261.60 0L240.13 2.18L251.57-55.59L269.34-57.77L267.49-46.76L267.49-46.76Q270.32-52.65 275.55-55.21L275.55-55.21L275.55-55.21Q280.78-57.77 288.96-57.77L288.96-57.77L288.96-57.77Q293.65-57.77 296.70-55.48L296.70-55.48L296.70-55.48Q299.75-53.19 300.73-49.49L300.73-49.49L300.73-49.49Q302.58-53.30 307.33-55.54L307.33-55.54L307.33-55.54Q312.07-57.77 317.90-57.77L317.90-57.77L317.90-57.77Q323.73-57.77 326.62-56.52L326.62-56.52L326.62-56.52Q329.51-55.26 331.25-53.19L331.25-53.19L331.25-53.19Q334.19-49.38 334.19-42.40L334.19-42.40L334.19-42.40Q334.19-35.53 331.25-21.25L331.25-21.25L331.25-21.25Q329.73-14.28 329.73-11.72L329.73-11.72L329.73-11.72Q329.73-9.16 331.20-7.63L331.20-7.63L331.20-7.63Q332.67-6.10 334.85-5.89L334.85-5.89L334.85-5.89Q333.76-2.18 330.00 0L330.00 0L330.00 0Q326.24 2.18 321.33 2.18ZM369.40-6.00L369.40-6.00L369.40-6.00Q366.02 2.18 355.23 2.18L355.23 2.18L355.23 2.18Q349.67 2.18 346.18-1.64L346.18-1.64L346.18-1.64Q343.24-5.01 343.24-8.39L343.24-8.39L343.24-8.39Q343.24-17.22 347.27-34.44L347.27-34.44L351.31-55.59L373.43-57.77L366.78-23.33L366.78-23.33Q364.93-15.26 364.93-12.43L364.93-12.43L364.93-12.43Q364.93-6.21 369.40-6.00ZM353.27-70.74L353.27-70.74L353.27-70.74Q353.27-74.99 356.81-77.28L356.81-77.28L356.81-77.28Q360.35-79.57 365.48-79.57L365.48-79.57L365.48-79.57Q370.60-79.57 373.71-77.28L373.71-77.28L373.71-77.28Q376.81-74.99 376.81-70.74L376.81-70.74L376.81-70.74Q376.81-66.49 373.38-64.31L373.38-64.31L373.38-64.31Q369.95-62.13 364.82-62.13L364.82-62.13L364.82-62.13Q359.70-62.13 356.48-64.31L356.48-64.31L356.48-64.31Q353.27-66.49 353.27-70.74ZM380.41-10.90L380.41-10.90L380.41-10.90Q380.41-13.84 381.94-21.25L381.94-21.25L387.71-50.69L381.28-50.69L381.72-53.95L381.72-53.95Q394.80-57.88 407.44-67.47L407.44-67.47L412.67-67.47L410.06-55.59L418.56-55.59L417.58-50.69L409.19-50.69L403.63-21.25L403.63-21.25Q402.21-14.50 402.21-12.21L402.21-12.21L402.21-12.21Q402.21-6.98 406.79-5.89L406.79-5.89L406.79-5.89Q405.70-2.18 401.77 0L401.77 0L401.77 0Q397.85 2.18 392.29 2.18L392.29 2.18L392.29 2.18Q386.73 2.18 383.57-1.31L383.57-1.31L383.57-1.31Q380.41-4.80 380.41-10.90ZM452.68-12.32L452.68-12.32L452.68-12.32Q447.01-6.43 436.65-6.43L436.65-6.43L436.65-6.43Q423.68-6.43 420.96-15.91L420.96-15.91L420.96-15.91Q420.09-18.75 420.09-21.91L420.09-21.91L420.09-21.91Q420.09-25.07 420.74-28.34L420.74-28.34L425.86-55.59L447.99-57.77L442.00-26.05L442.00-26.05Q441.78-24.63 441.45-23.11L441.45-23.11L441.45-23.11Q441.12-21.58 441.12-20.00L441.12-20.00L441.12-20.00Q441.12-18.42 441.67-17.39L441.67-17.39L441.67-17.39Q442.21-16.35 442.98-15.70L442.98-15.70L442.98-15.70Q444.28-14.82 446.63-14.82L446.63-14.82L446.63-14.82Q448.97-14.82 450.99-17.66L450.99-17.66L450.99-17.66Q453.00-20.49 453.98-25.40L453.98-25.40L459.98-55.59L481.45-57.77L473.28-14.93L473.28-14.93Q469.25 6.00 460.96 14.28L460.96 14.28L460.96 14.28Q456.71 18.53 451.21 20.22L451.21 20.22L451.21 20.22Q445.70 21.91 438.62 21.91L438.62 21.91L438.62 21.91Q427.17 21.91 420.63 18.31L420.63 18.31L420.63 18.31Q414.09 14.71 414.09 8.72L414.09 8.72L414.09 8.72Q414.09 4.25 417.47 1.69L417.47 1.69L417.47 1.69Q420.85-0.87 426.08-0.87L426.08-0.87L426.08-0.87Q430.66-0.87 434.15 1.09L434.15 1.09L434.15 1.09Q436.22 2.29 437.20 3.81L437.20 3.81L437.20 3.81Q434.69 6.00 434.69 9.59L434.69 9.59L434.69 9.59Q434.69 14.39 439.05 14.39L439.05 14.39L439.05 14.39Q446.25 14.39 450.39-2.18L450.39-2.18L450.39-2.18Q451.59-7.08 452.68-12.32Z" fill="#eb00a8"></path></g></g><style>text {
  font-size: 64px;
  font-family: Arial Black;
  dominant-baseline: central;
  text-anchor: middle;
}</style></svg>