<svg width="611.225px" height="175.52000732421874px" xmlns="http://www.w3.org/2000/svg" viewBox="-55.61250000000001 -12.76000366210937 611.225 175.52000732421874" style="background: none;" preserveAspectRatio="xMidYMid"><defs><filter id="editing-vr"><feFlood flood-color="#ff803f" flood-opacity="0.7" result="c1"></feFlood><feFlood flood-color="#c6d63c" flood-opacity="0.7" result="c3"></feFlood><feComposite operator="in" in="c1" in2="SourceAlpha" result="text-c1"></feComposite><feComposite operator="in" in="c3" in2="SourceAlpha" result="text-c3"></feComposite><feOffset in="text-c1" dx="5" dy="-1" result="text1"></feOffset><feOffset in="text-c3" dx="-5" dy="1" result="text3"></feOffset><feBlend in="SourceGraphic" in2="text1" mode="multiply" result="text4"></feBlend><feBlend in="text4" in2="text3" mode="multiply"></feBlend></filter></defs><g filter="url(#editing-vr)"><g transform="translate(32.14501953125, 120.62000846862793)"><path d="M52.82-20.29L52.82-20.29L52.82-20.29Q55.37-18.42 55.37-14.46L55.37-14.46L55.37-14.46Q55.37-10.49 53.66-7.69L53.66-7.69L53.66-7.69Q51.94-4.90 48.61-2.74L48.61-2.74L48.61-2.74Q41.45 1.86 28.96 1.86L28.96 1.86L28.96 1.86Q16.46 1.86 9.65-4.66L9.65-4.66L9.65-4.66Q2.84-11.17 2.84-22.74L2.84-22.74L2.84-22.74Q2.84-39.10 11.37-51.55L11.37-51.55L11.37-51.55Q17.84-60.76 29.40-64.68L29.40-64.68L29.40-64.68Q35.38-66.64 41.26-66.64L41.26-66.64L41.26-66.64Q47.14-66.64 50.76-65.86L50.76-65.86L50.76-65.86Q54.39-65.07 57.13-63.50L57.13-63.50L57.13-63.50Q63.11-60.07 63.11-54.59L63.11-54.59L63.11-54.59Q63.11-49.59 58.41-45.86L58.41-45.86L58.41-45.86Q54.10-42.53 50.57-42.53L50.57-42.53L50.57-42.53Q47.04-42.53 45.57-43.02L45.57-43.02L45.57-43.02Q45.96-46.55 45.96-48.85L45.96-48.85L45.96-48.85Q45.96-51.16 45.86-52.82L45.86-52.82L45.86-52.82Q45.77-54.49 45.28-56.06L45.28-56.06L45.28-56.06Q44.30-59.68 41.31-59.68L41.31-59.68L41.31-59.68Q38.32-59.68 35.33-56.89L35.33-56.89L35.33-56.89Q32.34-54.10 29.79-49.39L29.79-49.39L29.79-49.39Q24.01-38.71 24.01-26.07L24.01-26.07L24.01-26.07Q24.01-19.99 27.44-16.51L27.44-16.51L27.44-16.51Q30.87-13.03 38.22-13.03L38.22-13.03L38.22-13.03Q43.71-13.03 48.90-16.66L48.90-16.66L48.90-16.66Q51.16-18.23 52.82-20.29ZM67.77-2.94L67.77-2.94L67.77-2.94Q65.46-5.49 64.44-9.51L64.44-9.51L64.44-9.51Q63.41-13.52 63.41-20.09L63.41-20.09L63.41-20.09Q63.41-26.66 65.66-32.63L65.66-32.63L65.66-32.63Q67.91-38.61 72.03-42.92L72.03-42.92L72.03-42.92Q80.46-51.94 94.37-51.94L94.37-51.94L94.37-51.94Q99.37-51.94 103.00-50.27L103.00-50.27L119.76-51.94L112.50-13.72L112.50-13.72Q112.21-12.54 112.21-10.39L112.21-10.39L112.21-10.39Q112.21-8.23 113.53-6.86L113.53-6.86L113.53-6.86Q114.86-5.49 116.82-5.29L116.82-5.29L116.82-5.29Q115.84-1.96 112.26 0L112.26 0L112.26 0Q108.68 1.96 104.66 1.96L104.66 1.96L104.66 1.96Q100.65 1.96 97.95 0.44L97.95 0.44L97.95 0.44Q95.26-1.08 94.47-3.63L94.47-3.63L94.47-3.63Q92.90-1.18 89.57 0.39L89.57 0.39L89.57 0.39Q86.24 1.96 81.78 1.96L81.78 1.96L81.78 1.96Q77.32 1.96 73.70 0.78L73.70 0.78L73.70 0.78Q70.07-0.39 67.77-2.94ZM88.44-42.73L88.44-42.73L88.44-42.73Q87.32-40.96 86.34-37.98L86.34-37.98L86.34-37.98Q85.36-34.99 83.74-27.00L83.74-27.00L83.74-27.00Q82.12-19.01 82.12-13.33L82.12-13.33L82.12-13.33Q82.12-7.64 83.01-5.98L83.01-5.98L83.01-5.98Q83.89-4.31 85.46-4.31L85.46-4.31L85.46-4.31Q88.59-4.31 90.90-7.30L90.90-7.30L90.90-7.30Q93.20-10.29 94.08-15.58L94.08-15.58L99.27-44.30L99.27-44.30Q97.22-46.06 94.81-46.06L94.81-46.06L94.81-46.06Q92.41-46.06 90.99-45.28L90.99-45.28L90.99-45.28Q89.57-44.49 88.44-42.73ZM148.47-5.39L148.47-5.39L148.47-5.39Q145.43 1.96 135.73 1.96L135.73 1.96L135.73 1.96Q130.83 1.96 127.69-1.47L127.69-1.47L127.69-1.47Q125.15-4.31 125.15-7.55L125.15-7.55L125.15-7.55Q125.15-14.90 128.58-30.97L128.58-30.97L135.73-68.60L155.62-70.56L146.12-20.97L146.12-20.97Q144.45-13.72 144.45-11.17L144.45-11.17L144.45-11.17Q144.45-5.59 148.47-5.39ZM161.06-2.94L161.06-2.94L161.06-2.94Q158.76-5.49 157.73-9.51L157.73-9.51L157.73-9.51Q156.70-13.52 156.70-20.09L156.70-20.09L156.70-20.09Q156.70-26.66 158.96-32.63L158.96-32.63L158.96-32.63Q161.21-38.61 165.33-42.92L165.33-42.92L165.33-42.92Q173.75-51.94 187.67-51.94L187.67-51.94L187.67-51.94Q192.67-51.94 196.29-50.27L196.29-50.27L213.05-51.94L205.80-13.72L205.80-13.72Q205.51-12.54 205.51-10.39L205.51-10.39L205.51-10.39Q205.51-8.23 206.83-6.86L206.83-6.86L206.83-6.86Q208.15-5.49 210.11-5.29L210.11-5.29L210.11-5.29Q209.13-1.96 205.56 0L205.56 0L205.56 0Q201.98 1.96 197.96 1.96L197.96 1.96L197.96 1.96Q193.94 1.96 191.25 0.44L191.25 0.44L191.25 0.44Q188.55-1.08 187.77-3.63L187.77-3.63L187.77-3.63Q186.20-1.18 182.87 0.39L182.87 0.39L182.87 0.39Q179.54 1.96 175.08 1.96L175.08 1.96L175.08 1.96Q170.62 1.96 166.99 0.78L166.99 0.78L166.99 0.78Q163.37-0.39 161.06-2.94ZM181.74-42.73L181.74-42.73L181.74-42.73Q180.61-40.96 179.63-37.98L179.63-37.98L179.63-37.98Q178.65-34.99 177.04-27.00L177.04-27.00L177.04-27.00Q175.42-19.01 175.42-13.33L175.42-13.33L175.42-13.33Q175.42-7.64 176.30-5.98L176.30-5.98L176.30-5.98Q177.18-4.31 178.75-4.31L178.75-4.31L178.75-4.31Q181.89-4.31 184.19-7.30L184.19-7.30L184.19-7.30Q186.49-10.29 187.38-15.58L187.38-15.58L192.57-44.30L192.57-44.30Q190.51-46.06 188.11-46.06L188.11-46.06L188.11-46.06Q185.71-46.06 184.29-45.28L184.29-45.28L184.29-45.28Q182.87-44.49 181.74-42.73ZM288.90 1.96L288.90 1.96L288.90 1.96Q277.05 1.96 277.05-7.25L277.05-7.25L277.05-7.25Q277.05-11.27 278.76-19.06L278.76-19.06L278.76-19.06Q280.48-26.85 281.06-29.99L281.06-29.99L281.06-29.99Q282.44-37.14 282.44-39.40L282.44-39.40L282.44-39.40Q282.44-44.39 278.71-44.39L278.71-44.39L278.71-44.39Q276.26-44.39 273.91-41.01L273.91-41.01L273.91-41.01Q271.56-37.63 270.48-30.87L270.48-30.87L264.40 0L245.29 1.96L250.59-24.70L250.59-24.70Q251.47-29.11 252.25-34.10L252.25-34.10L252.25-34.10Q253.04-39.10 253.04-39.89L253.04-39.89L253.04-39.89Q253.04-44.39 249.70-44.39L249.70-44.39L249.70-44.39Q247.45-44.39 245.00-41.06L245.00-41.06L245.00-41.06Q242.55-37.73 241.18-30.87L241.18-30.87L235.20 0L215.89 1.96L226.18-49.98L242.16-51.94L240.49-42.04L240.49-42.04Q243.04-47.33 247.74-49.64L247.74-49.64L247.74-49.64Q252.45-51.94 259.80-51.94L259.80-51.94L259.80-51.94Q264.01-51.94 266.76-49.88L266.76-49.88L266.76-49.88Q269.50-47.82 270.38-44.49L270.38-44.49L270.38-44.49Q272.05-47.92 276.31-49.93L276.31-49.93L276.31-49.93Q280.57-51.94 285.82-51.94L285.82-51.94L285.82-51.94Q291.06-51.94 293.66-50.81L293.66-50.81L293.66-50.81Q296.25-49.69 297.82-47.82L297.82-47.82L297.82-47.82Q300.47-44.39 300.47-38.12L300.47-38.12L300.47-38.12Q300.47-31.95 297.82-19.11L297.82-19.11L297.82-19.11Q296.45-12.84 296.45-10.54L296.45-10.54L296.45-10.54Q296.45-8.23 297.77-6.86L297.77-6.86L297.77-6.86Q299.10-5.49 301.06-5.29L301.06-5.29L301.06-5.29Q300.08-1.96 296.70 0L296.70 0L296.70 0Q293.31 1.96 288.90 1.96ZM332.12-5.39L332.12-5.39L332.12-5.39Q329.08 1.96 319.38 1.96L319.38 1.96L319.38 1.96Q314.38 1.96 311.25-1.47L311.25-1.47L311.25-1.47Q308.60-4.51 308.60-7.55L308.60-7.55L308.60-7.55Q308.60-15.48 312.23-30.97L312.23-30.97L315.85-49.98L335.75-51.94L329.77-20.97L329.77-20.97Q328.10-13.72 328.10-11.17L328.10-11.17L328.10-11.17Q328.10-5.59 332.12-5.39ZM317.62-63.60L317.62-63.60L317.62-63.60Q317.62-67.42 320.80-69.48L320.80-69.48L320.80-69.48Q323.99-71.54 328.59-71.54L328.59-71.54L328.59-71.54Q333.20-71.54 335.99-69.48L335.99-69.48L335.99-69.48Q338.79-67.42 338.79-63.60L338.79-63.60L338.79-63.60Q338.79-59.78 335.70-57.82L335.70-57.82L335.70-57.82Q332.61-55.86 328.01-55.86L328.01-55.86L328.01-55.86Q323.40-55.86 320.51-57.82L320.51-57.82L320.51-57.82Q317.62-59.78 317.62-63.60ZM342.02-9.80L342.02-9.80L342.02-9.80Q342.02-12.45 343.39-19.11L343.39-19.11L348.59-45.57L342.80-45.57L343.20-48.51L343.20-48.51Q354.96-52.04 366.32-60.66L366.32-60.66L371.03-60.66L368.68-49.98L376.32-49.98L375.44-45.57L367.89-45.57L362.89-19.11L362.89-19.11Q361.62-13.03 361.62-10.98L361.62-10.98L361.62-10.98Q361.62-6.27 365.74-5.29L365.74-5.29L365.74-5.29Q364.76-1.96 361.23 0L361.23 0L361.23 0Q357.70 1.96 352.70 1.96L352.70 1.96L352.70 1.96Q347.70 1.96 344.86-1.18L344.86-1.18L344.86-1.18Q342.02-4.31 342.02-9.80ZM406.99-11.07L406.99-11.07L406.99-11.07Q401.90-5.78 392.59-5.78L392.59-5.78L392.59-5.78Q380.93-5.78 378.48-14.31L378.48-14.31L378.48-14.31Q377.69-16.86 377.69-19.70L377.69-19.70L377.69-19.70Q377.69-22.54 378.28-25.48L378.28-25.48L382.89-49.98L402.78-51.94L397.39-23.42L397.39-23.42Q397.19-22.15 396.90-20.78L396.90-20.78L396.90-20.78Q396.61-19.40 396.61-17.98L396.61-17.98L396.61-17.98Q396.61-16.56 397.10-15.63L397.10-15.63L397.10-15.63Q397.59-14.70 398.27-14.11L398.27-14.11L398.27-14.11Q399.45-13.33 401.56-13.33L401.56-13.33L401.56-13.33Q403.66-13.33 405.48-15.88L405.48-15.88L405.48-15.88Q407.29-18.42 408.17-22.83L408.17-22.83L413.56-49.98L432.87-51.94L425.52-13.43L425.52-13.43Q421.89 5.39 414.44 12.84L414.44 12.84L414.44 12.84Q410.62 16.66 405.67 18.18L405.67 18.18L405.67 18.18Q400.72 19.70 394.35 19.70L394.35 19.70L394.35 19.70Q384.06 19.70 378.18 16.46L378.18 16.46L378.18 16.46Q372.30 13.23 372.30 7.84L372.30 7.84L372.30 7.84Q372.30 3.82 375.34 1.52L375.34 1.52L375.34 1.52Q378.38-0.78 383.08-0.78L383.08-0.78L383.08-0.78Q387.20-0.78 390.33 0.98L390.33 0.98L390.33 0.98Q392.20 2.06 393.08 3.43L393.08 3.43L393.08 3.43Q390.82 5.39 390.82 8.62L390.82 8.62L390.82 8.62Q390.82 12.94 394.74 12.94L394.74 12.94L394.74 12.94Q401.21 12.94 404.94-1.96L404.94-1.96L404.94-1.96Q406.01-6.37 406.99-11.07Z" fill="#e646f5"></path></g></g><style>text {
  font-size: 64px;
  font-family: Arial Black;
  dominant-baseline: central;
  text-anchor: middle;
}</style></svg>