<svg xmlns="http://www.w3.org/2000/svg" viewBox="0 10.699999809265137 381.8999938964844 52.849998474121094" data-asc="0.875" width="381.8999938964844" height="52.849998474121094"><defs/><g><g><g transform="translate(0, 0)"><path d="M12.95 47Q12.20 47 12.30 46.75L11.70 46.95L11.45 46.75Q11.55 46.75 11.30 46.73Q11.05 46.70 10.50 46.65L10.20 46.65Q9.85 46.65 9.60 46.80L8.50 46.35L8.30 46.40L7.70 46.15L7.55 46.25L6.65 45.70L6.20 45.85L6.05 45.45Q5.75 45.05 5.60 45.45L5.25 44.90Q5.05 45.20 4.80 45.10L4.40 44.40L4.20 44.65Q3.85 44.65 3.90 44.20Q3.10 43.45 2.42 42.70Q1.75 41.95 1.15 41.20L1.20 41.10Q1.15 40.85 1.02 40.45Q0.90 40.05 0.70 39.55L0.50 39.45L0.35 38.85Q0 38.85 0 35.90L0.15 34.55L0.30 34.60L0.55 33.35L0.75 33.20Q0.80 31.55 1.45 30.20Q1.85 29.35 3.10 27.65L3.15 27.40Q3.45 27.15 3.88 26.80Q4.30 26.45 4.80 25.95L4.80 25.75Q4.80 25.40 6.45 24.05Q6.45 23.70 6.95 23.25L7.15 23.40Q7.35 23.40 7.40 23Q7.45 22.60 7.55 22.50Q8.05 22 8.75 21.40Q9.45 20.80 10.40 20.15L10.40 19.95L11.10 19.35L11.15 19.45L13.20 18.05L13.40 18.15Q13.60 18.15 13.60 17.95L13.80 18Q14.60 17.10 15.35 16.75L15.55 16.85L16 16.60Q16 16.60 16.13 16.52Q16.25 16.45 16.50 16.35L20.35 15Q21.20 14.70 22.25 14.55Q23.30 14.40 24.55 14.35L25.05 14.15Q25.55 14.05 26.18 14Q26.80 13.95 27.50 13.90L29.20 14.05Q30.15 14.35 30.05 14.20Q31.40 14.55 31.80 15.05L31.90 15Q32.40 15 32.45 15.35Q33.10 15.40 33.70 16.25Q34.95 14.80 35.95 13.57Q36.95 12.35 37.65 11.35Q37.85 12.85 34.30 17.20L34.40 17.55L34.40 17.70Q34.80 18.40 34.80 19.45Q34.80 19.45 34.70 19.75Q34.60 20 34.75 20.05L34.30 21.85Q34.15 22.40 34 22.82Q33.85 23.25 33.60 23.50Q33.55 23.55 33.43 23.72Q33.30 23.90 33.10 24.25Q32.75 24.75 32.23 25.32Q31.70 25.90 30.90 26.45Q30.25 26.95 29.63 27.40Q29 27.85 28.35 28.30L28.10 28.20L27.70 28.70Q27.65 28.65 27.55 28.65Q27.45 28.65 27.30 28.70Q27.15 28.75 27.05 28.70Q25.35 30 25.30 29.85L23.75 30.80Q23.40 31 22.25 31.40Q21.15 31.75 21.05 31.60Q20.50 31.75 19.80 32.25L19.50 32.25Q17.80 33.95 17.65 34.40L17.20 34.70Q15.80 35.60 14.95 35.50Q14.60 35.65 14.60 35.10Q14.60 34.25 15.55 33.30Q15.70 32.90 15.90 32.70Q15.65 32.75 15.25 32.85Q14.85 32.95 14.30 33.05Q13.85 33.10 13.75 33Q13.75 32.85 14.35 32.65L16.40 32.30Q16.75 32.10 16.90 32.15L17.35 32L17.50 32.05Q17.95 31.80 18.85 31.65Q23.15 27.95 25.30 25.65Q27.25 23.55 28.88 21.75Q30.50 19.95 31.80 18.50L31.50 18.10Q31.50 17.15 31.10 17.15Q30.95 17.15 30.90 17.20L30.40 16.75L30.30 16.80L28.90 15.85L28.85 15.65L28.45 15.70Q28.10 15.45 27.70 15.50L27.45 15.50Q26.85 15.50 26.55 15.20L26.20 15.30Q25.55 15.15 25.10 15.15L20.70 15.85Q19.45 16.05 18.40 16.40Q17.35 16.75 16.45 17.15Q16.30 17.30 15.70 17.50Q15.50 17.60 14.90 17.95Q14.30 18.30 13.35 18.90Q12.40 19.45 11.83 19.85Q11.25 20.25 11 20.45L10.10 21.25L9.90 21.35Q9.40 21.85 8.63 22.57Q7.85 23.30 6.85 24.25Q6.35 24.75 5.80 25.90L5.70 25.90Q5.55 25.90 5.45 26.20Q5.40 26.55 5.45 26.65L4.90 27.40Q4.75 27.60 4.70 28.25Q3.65 28.85 3.65 29.95Q3.10 30.65 3.05 30.65L3.35 31.35L2.95 32.15Q2.65 33.70 2.75 34.05Q2.45 34.35 2.65 34.80L2.25 35.35Q2.65 36.45 2.65 36.30Q2.65 36.50 2.40 36.50L2.80 37.05L2.50 37.75L2.55 38.25L2.90 38.25Q3.50 40.40 3.80 40.30Q4.25 41.25 5 41.50L5 41.90Q5.10 41.95 5.40 42.25Q5.70 42.55 6.10 43.10L6.40 42.90L6.75 42.95L7.15 43.40L7.15 43.50L7.50 43.95L7.95 43.80Q8.40 44.10 8.40 43.95L9 44.20Q9.10 44.10 9.10 44.10Q9.20 44.10 9.45 44.65L9.90 44.65L10.05 44.90Q10.95 44.60 11.60 44.60Q12.60 44.60 13.05 45.20Q13.10 45.15 13.20 45.15Q13.45 45.15 13.78 45.30Q14.10 45.45 14.15 45.45L14.25 45.40L15.25 45.30L15.45 45.40L15.70 45Q15.95 45.20 16.55 45.10L17.45 44.95Q17.45 44.95 17.68 44.88Q17.90 44.80 18.35 44.60Q18.50 44.75 18.75 44.75Q19.35 44.75 19.35 44.75L20.50 44.35L20.60 44.50L21.25 44.10Q21.40 44.15 21.55 44L22.25 43.90L22.75 44.10L23.20 44.05Q23.20 43.95 23.23 43.83Q23.25 43.70 23.30 43.55L23.50 43.60L24.10 43.10L24.40 43.15L25.50 42.75L25.70 42.90L26.60 42.30L26.75 42.40L27.75 41.75L27.85 41.80Q28.55 41.50 29.65 40.60L29.70 40.70Q31.65 39.05 35.50 36.10L35.55 36.20Q35.95 35.85 36.45 35.35Q36.95 34.85 37.60 34.15L37.75 34.20L38.75 32.95L39.00 33Q38.95 33.30 38.65 33.63Q38.35 33.95 38.35 34.10Q38.35 34.20 37.90 34.65Q37.50 35.05 37.40 35.05Q37.30 35.05 34.05 37.95Q30.85 40.80 30.50 40.80Q30.05 41.30 28.85 41.85Q27.75 42.35 27.25 42.85L27.20 42.75L26.95 42.80L25.70 43.55L25.50 43.65Q24.85 44 24.08 44.35Q23.30 44.70 22.30 44.95L22.20 44.85L21.30 45.40L21.15 45.35Q20.50 45.45 19.63 45.67Q18.75 45.90 17.60 46.25L17.40 46.20Q17.05 46.25 16.68 46.30Q16.30 46.35 15.85 46.40Q15.85 46.50 15.70 46.50Q15.50 46.50 15.38 46.45Q15.25 46.40 15.30 46.40Q15.05 46.45 14.22 46.73Q13.40 47 12.95 47M20.90 31L21.35 30.70L21.50 30.85L22.85 30.10L23.05 30.20L23.50 29.80L23.70 29.90L24.10 29.65L24.20 29.75Q25.35 28.60 26.30 28.55L26.90 28.30L26.85 28.05L27.15 27.65Q28.90 26.65 30.60 24.50Q32.10 22.60 32.20 21.80Q32.40 21.85 32.40 20.65Q32.40 20.30 32.38 20.02Q32.35 19.75 32.30 19.50Q31.30 20.55 30.13 21.85Q28.95 23.15 27.55 24.70Q27.25 25.05 25.60 26.63Q23.95 28.20 20.90 31ZM36.00 52.65Q34.90 51.90 34.80 51.90Q34.75 51.90 34.65 52Q33.25 50.60 33.25 49.55Q33.25 46.80 39.05 41.15L38.95 40.65L37.45 39.60Q37.00 38.90 36.55 37.10Q36.90 36.75 37.33 36.17Q37.75 35.60 38.30 34.80L39.25 34.50L39.40 34.55L41.20 33.80L41.50 33.90Q41.90 33.90 42.63 33.83Q43.35 33.75 44.40 33.65Q45.35 33.55 46.08 33.52Q46.80 33.50 47.35 33.55Q47.35 33.55 47.65 33.52Q47.95 33.50 48.55 33.45L48.70 33.55L50.20 32.85L50.30 32.90Q51.45 32.60 54.20 31.25Q56.60 30.10 58.25 29.90Q57.45 30.50 54.55 31.60Q52.10 32.55 51.15 33.75L51.40 34.20L52.05 33.75Q52.05 33.90 52.85 33.95Q55.35 34.25 57.85 34.25L58.20 34.70Q58.45 34.75 58.78 34.77Q59.10 34.80 59.55 34.80Q60.40 34.80 61.15 34.85Q61.90 34.90 62.40 35.15L63.30 34.25L63.40 34.35Q66.35 32 68.93 29.65Q71.50 27.30 73.70 25L73.70 23.85L73.40 23.55L73.60 22.60Q73.45 22.50 73.45 22.15Q73.45 21.40 73.50 21.10Q73.55 20.80 73.55 21.05Q73.55 18.45 73.75 17.90Q74.30 16.45 76.40 16.45L76.85 16.65L77.15 17.30Q76.95 18.20 76.63 19.17Q76.30 20.15 75.90 21.20L76.15 22.75Q79.25 19.40 81.73 16.38Q84.20 13.35 86.05 10.70Q86.15 11.55 85.15 13.30Q84.15 15.05 81.85 17.55L75.95 24.05Q76.50 24.85 76.50 25.75Q76.50 26.35 76.30 26.90L76.55 26.85L77.30 28.95L77.25 29.25Q77.25 30.10 78 32.20Q78.80 34.30 78.75 35.10L79.35 35.50L79.35 35.70Q79.35 36.15 79.75 36.15Q80.50 36.15 82.35 35.75Q83.25 35.55 83.93 35.45Q84.60 35.35 85.05 35.35L85.30 35.40Q84.25 36.10 83.20 36.50Q82.15 36.90 81.15 37L81.05 36.90L80.50 37.20L80.60 37.80L80.75 37.70L81.85 39.95L81.70 40.25L82.65 41.35L83.05 41.25L83.15 40L83.30 40.10Q83.45 40.95 85.10 42.60L85.20 42.55Q86.65 43.15 86.90 43.85L86.05 44.30Q85.65 44.10 85.05 43.75Q84.45 43.40 83.65 42.90L83.55 42.95Q83.05 42.95 82.60 42.35Q82.40 42.10 82.20 41.88Q82 41.65 81.80 41.40L81.80 41.25Q80.95 40.70 80.10 39.05L79.95 39.20L79.55 38.25L79.40 38.30L78.45 37.15L77.15 37.25L77 37.15L76.05 37.30Q75.50 37.30 68.05 36.70L67.85 36.90L65.80 36.55Q65.15 36.45 64.65 36.38Q64.15 36.30 63.75 36.30Q62.65 36.30 60.40 38.90L60.15 38.85L59.90 39.35Q59.45 39.90 56.90 41.65Q55.65 42.45 54.90 42.95Q54.15 43.45 53.80 43.60L53.45 44.40L48.35 48.05L48.25 48L43.50 50.95L43.05 50.90Q42.85 50.90 42.30 51.50L41.70 51.25L41.05 51.75L40.50 51.50Q40.05 51.50 40.15 52.05L39.35 52.45L38.90 52.10L38.15 52.50Q37.90 52.45 37.65 52.42Q37.40 52.40 37.15 52.40Q36.50 52.40 36.00 52.65M75.35 36.25Q75.80 36.25 76.18 36.23Q76.55 36.20 76.80 36.15L76.95 36.25L77.15 36.15L77.65 36.15L77.70 35.90L77.55 35.35Q77.30 35.35 76.45 33.55Q75.65 31.75 75.55 31.15L75.30 31.05L75.35 30.90Q75.35 30.70 75.20 30.35L75.20 30.15L74.95 29.95L75 29.75Q74.65 29.25 73.95 27.10L74.20 26.50L74 26.05Q73.80 26.15 73.58 26.40Q73.35 26.65 73.10 27Q72.75 27.25 71.80 28.07Q70.85 28.90 69.35 30.35Q66.20 33.35 66.05 33.80L65.60 34.10L65.45 34L64.80 35L64.90 35.15L65.05 35Q65.40 35.35 65.85 35.25L66.20 35.55L66.25 35.55Q66.50 35.55 66.90 35.30L67 35.50Q67.60 35.50 67.75 35.45L67.85 35.80L68.45 35.55L68.70 35.70L69.70 35.60L70.20 35.85L70.30 35.70Q70.45 35.95 70.90 35.95Q71.20 35.95 71.40 35.90Q71.45 36.10 72.40 36.10Q72.75 36.10 73.05 36.02Q73.35 35.95 73.70 35.85Q74.15 35.95 74.35 36.05Q74.45 36 74.53 36Q74.60 36 74.60 36Q74.75 36 74.98 36.13Q75.20 36.25 75.35 36.25M40.10 39.95Q40.20 39.55 40.30 39.40L40.70 39.70Q42.05 38.80 43.60 37.40L43.60 37.60Q45.75 35.60 46.25 35.55L46.30 35.35L46.20 35.20Q46.05 35.25 45.95 35.25Q45.85 35.25 45.75 35.25Q45.65 35.25 45.53 35.20Q45.40 35.15 45.30 35.15Q45.10 35.15 44.73 35.20Q44.35 35.25 44.15 35.25Q43.35 35.25 43.45 35.20Q43.30 35.15 43.15 35.15Q42.80 35.15 42.23 35.23Q41.65 35.30 40.90 35.40L40.75 35.30Q40.55 35.30 40.25 35.38Q39.95 35.45 39.85 35.45L39.65 35.60Q39.40 35.60 38.00 36.30L37.90 36.20Q37.60 36.40 37.45 36.45L37.45 37.35Q37.55 37.35 37.60 37.30Q37.70 37.30 37.95 37.85Q38.20 38.40 38.40 38.40Q38.45 38.35 38.55 38.35L38.55 38.50Q38.60 38.50 38.80 38.50Q38.95 38.50 38.95 38.65L38.80 38.75L38.70 38.95Q39.05 39 39.30 39.35L39.40 39.10L39.35 38.90L39.45 38.90Q39.60 39.20 39.80 39.40L39.75 39.45Q39.75 39.90 40.10 39.95M36.20 51.10L36.60 50.80L37.25 50.85L37.35 50.75Q37.40 50.80 37.45 50.85Q37.50 50.90 37.55 50.95L37.60 50.80L37.85 51.10Q38.00 50.30 38.85 50.30Q39.05 50.30 39.10 50.35L39.50 50L39.75 50.25Q40.10 50.25 40.75 49.65L41.35 50L41.65 49.85L41.80 49.30L41.90 49.35L45.65 47.10Q48.00 45.70 49.50 45.15Q50.25 44.25 54.80 41.20Q57.00 39.75 58.23 38.80Q59.45 37.85 59.70 37.35L60.05 37.25Q60.20 37.05 60.38 36.83Q60.55 36.60 60.75 36.30L60.70 36.15Q60.40 36.20 60.00 36.20Q59.60 36.20 59.05 36.20Q57.20 36.20 55.85 35.80L55.65 35.90Q54.75 35.55 52.75 35.55Q51.70 35.50 50.95 35.45Q50.20 35.40 49.80 35.30L49.70 35.50L47.85 35.25Q47.05 35.75 46.25 36.27Q45.45 36.80 44.60 37.35L43.20 38.60Q42.90 38.65 42.33 39.25Q41.75 39.85 41.60 40.20L41.70 40.60L42.15 40.40Q42.60 40.80 43.40 41.50L43.90 41.35L43.95 41.50Q44.25 41.50 44.45 41.65L45.10 41.50L45.40 41.85L45.20 42.05L44.85 42.10L44.50 42.35L44.05 42L43.90 42.05Q43.45 42.05 42.75 41.70L42.45 41.90L42.00 41.70L41.90 41.90Q41.80 41.85 41.73 41.70Q41.65 41.55 41.55 41.40L41.00 41.60L40.95 41.40L40.35 41.55L40.10 41.30Q34.75 47.35 34.75 49.35Q34.75 50.85 36.20 51.10ZM127.20 54Q127.15 54 127 53.90Q126.85 53.80 126.75 53.80L126.60 53.80Q126.55 53.85 126.45 53.85Q126.25 53.40 125.85 53.15Q125.75 53.10 125.45 53.10Q125.10 52.60 124.30 52.30Q124.30 52.30 124.30 52.27Q124.30 52.25 124.35 52.20Q124.15 52.05 124.15 52.05Q124.10 52.05 124.10 52.10L124.05 52.10Q123.90 52.10 123.20 51.25Q123.20 51.15 124 50.80Q123.80 50.70 123.63 50.58Q123.45 50.45 123.20 50.25Q123.10 49.90 122.58 49.52Q122.05 49.15 121.95 49.25L121.20 49.05Q121.20 48.95 121.05 48.85Q120.90 48.75 120.95 48.75Q120.85 48.75 120.85 48.80Q120.85 48.85 120.80 48.85Q120.70 48.85 120.08 48.67Q119.45 48.50 119.40 48.50Q119.40 48.50 119.20 48.60L118.55 47.90Q118.25 48 118.35 48Q118.25 48 118 47.77Q117.75 47.55 117.70 47.55Q117.60 47.55 117.63 47.60Q117.65 47.65 117.60 47.65Q117.55 47.65 117.40 47.52Q117.25 47.40 117.20 47.40L117 47.40Q117 47.35 117.05 47.30Q116.95 47.20 116.90 47.20Q116.60 47.20 116.20 47.05Q115.70 46.80 115.10 46.55Q114.50 46.30 113.75 46Q108.30 43.95 107.70 43.95L107.35 44.05L107.35 43.95Q106.95 43.55 106.85 43.55Q106.65 43.55 106.55 43.65Q105.85 43.35 105.90 43.25Q105.85 43.30 105.85 43.35Q105.40 43.10 105.15 42.70Q104.95 42.80 104.95 42.80Q104.85 42.80 104.83 42.75Q104.80 42.70 104.75 42.70Q104.65 42.70 104.40 42.88Q104.15 43.05 104.05 43.05Q104 43.05 103.78 42.92Q103.55 42.80 103.50 42.80L103.30 42.85Q103.10 42.55 102.85 42.45Q102.85 42.40 102.75 42.40Q102.65 42.40 102.65 42.48Q102.65 42.55 102.55 42.55Q102.50 42.55 102.50 42.50Q102.50 42.40 102.45 42.40Q102.35 42.40 102.33 42.48Q102.30 42.55 102.25 42.55Q101.50 42.20 101 42.20Q100.95 42.20 100.85 42.30Q100.75 42.20 100.60 42.02Q100.45 41.85 100.25 41.85L99.90 41.95L99.75 41.95Q99.70 41.95 99.58 41.95Q99.45 41.95 99.30 41.90L99.15 42.05Q99 41.85 98.65 41.55Q98.55 41.60 98.15 42Q98.10 42.05 98.05 42.17Q98 42.30 97.90 42.45Q97.55 42.80 97.17 43.17Q96.80 43.55 96.80 43.80Q96.65 43.85 96.53 43.98Q96.40 44.10 96.30 44.20Q96.30 44.30 95.95 44.80Q95.80 44.85 95.83 44.83Q95.85 44.80 95.67 45Q95.50 45.20 94.65 45.90Q94.60 45.95 94.30 46.05L93.55 46.75Q93.40 46.80 93.40 46.80L92.55 47.40L92.30 47.25Q92.25 47.25 92.20 47.33Q92.15 47.40 92.10 47.40Q92.05 47.40 92.05 47.30Q92 47.25 91.95 47.25Q92.05 47.25 91.70 47.45L91.25 47.10L90.95 47.25Q90.95 47.25 90.75 47Q90.55 46.75 90.45 46.75Q90.45 46.70 90.55 46.60L90.40 46.30L90.40 46.15Q90.40 46 90.35 45.73Q90.30 45.45 90.15 45.10Q90.15 44.85 90.38 44.63Q90.60 44.40 90.60 44.20L91.10 44.45Q91.10 44.55 91.10 44.70Q91.10 44.85 91.15 45.05Q91.45 45.80 91.95 46Q92 46.05 92.08 46.25Q92.15 46.45 92.20 46.45Q92.30 46.45 92.25 46.40L92.30 46.40L92.50 46.55Q92.60 46.30 92.80 46.30Q92.85 46.30 92.85 46.35Q92.85 46.40 92.95 46.40Q93 46.40 93.28 46.02Q93.55 45.65 93.60 45.65Q93.65 45.65 93.65 45.70L93.70 45.70Q93.65 45.70 94.75 44.60L95.20 43.95Q95.30 43.95 96.15 43.15L96.15 42.75Q96.35 42.50 96.58 42.15Q96.80 41.80 97.15 41.40Q96.95 41.40 96.75 41.45Q96.55 41.50 96.50 41.50Q96.45 41.50 96.45 41.42Q96.45 41.35 96.35 41.35Q96.35 41.35 96.30 41.38Q96.25 41.40 96.15 41.45L95.95 41.45Q95.65 41.45 95.20 41.30L95.05 41.30Q95 41.30 94.88 41.40Q94.75 41.50 94.65 41.50L94.15 41.50Q94.10 41.50 94.10 41.42Q94.10 41.35 94.05 41.35Q93.95 41.35 93.42 41.50Q92.90 41.65 92.80 41.65Q92.75 41.65 92.70 41.60Q92.65 41.55 92.60 41.55L92.20 41.65Q92.15 41.70 92.05 41.80Q91.95 41.90 91.85 41.90L91.80 41.90Q91.80 41.85 91.70 41.85Q91.65 41.85 91.53 41.95Q91.40 42.05 91.35 42.05Q91.25 42.05 91.25 42L91.10 42Q91.10 42.05 91 42.05L90.80 41.85Q90.75 41.90 90.58 42.10Q90.40 42.30 90.20 42.20Q90.15 42.30 90.13 42.40Q90.10 42.50 90.10 42.60L90.15 42.70Q90.20 42.70 90.30 42.80L90.85 42.35Q90.85 42.35 91.25 42.90L90.85 43.25Q90.65 43.05 90.40 43.05Q90.35 43.05 89.92 43.33Q89.50 43.60 89.45 43.60Q89.40 43.60 89.35 43.52Q89.30 43.45 89.25 43.45Q89.20 43.45 89.17 43.50Q89.15 43.55 89.05 43.55L88.90 43.45L88.45 43.45Q88.40 43.45 88.40 43.52Q88.40 43.60 88.30 43.60Q88.25 43.60 88.22 43.55Q88.20 43.50 88.15 43.50Q87.90 43.50 87.70 43.85Q87.55 43.70 87.40 43.70Q87.25 43.70 87.05 43.90L86.85 43.75Q86.80 43.75 86.80 43.80L86.75 43.80L86.55 43.60Q86.30 43.60 86.20 43.15L86.10 42.60L86.10 42.20L86.30 41.90Q86.95 41.35 87.10 41.35Q87.20 41.35 87.35 41.40L87.55 41.40Q87.65 41.40 87.80 41.33Q87.95 41.25 88 41.25Q87.95 41.25 87.97 41.27Q88 41.30 88.05 41.25L88 41.25Q87.90 41.30 88.10 41.40Q89.10 41.10 89.05 41.10L89.10 41.10Q89.10 41.15 89.15 41.15Q89.25 41.15 89.38 41.05Q89.50 40.95 89.60 40.95Q89.85 40.95 90.28 40.92Q90.70 40.90 91.20 40.85L91.70 40.70Q91.80 40.70 91.75 40.75Q91.70 40.80 91.75 40.80L92.25 40.80Q92.35 40.80 92.50 40.73Q92.65 40.65 92.70 40.65Q92.80 40.65 92.75 40.70Q92.70 40.75 92.75 40.75L93.55 40.75L93.70 40.70Q93.80 40.70 94.08 40.75Q94.35 40.80 94.40 40.80Q94.45 40.80 94.63 40.75Q94.80 40.70 94.90 40.70L95.05 40.85Q95.25 40.80 95.38 40.80Q95.50 40.80 95.55 40.75L95.65 40.85Q95.75 40.85 95.95 40.83Q96.15 40.80 96.40 40.75Q96.25 40.70 96.60 40.70Q96.65 40.70 96.75 40.77Q96.85 40.85 96.90 40.85Q96.95 40.85 96.97 40.80Q97 40.75 97.05 40.75Q97.10 40.75 97.15 40.80Q97.20 40.85 97.25 40.85Q97.30 40.85 97.60 40.75Q98 40.10 98.35 39.45Q98.70 38.80 99 38.15Q99.15 37.95 99.30 37.73Q99.45 37.50 99.55 37.15Q99.75 37.10 99.85 36.75Q99.95 36.75 100.08 36.63Q100.20 36.50 100.20 36.05Q100.75 35.35 100.65 35.10L101.45 34.05Q101.40 33.75 101.45 33.55Q101.50 33.55 101.60 33.40Q101.70 33.25 101.85 33.25Q101.90 33.25 101.95 33.30Q101.95 32.85 102 32.75Q101.95 32.60 101.95 32.50L102.10 32.20Q102.30 32.15 102.42 32.05Q102.55 31.95 102.65 31.85Q102.65 31.85 102.83 31.40Q103 30.95 103.20 30.95Q103.30 30.60 104.05 29.70L104.40 28.75Q105 28.40 104.90 27.85Q105.15 27.50 105.42 27.22Q105.70 26.95 106.05 26.70L106.20 26.40Q106.15 26.35 106.05 26.45L106.20 26.05Q106.20 26.05 106.20 26.20Q106.20 26.35 106.35 26.20Q106.45 26.05 106.35 25.95Q106.55 25.75 106.45 25.65Q106.45 25.60 106.45 25.60L106.45 25.65Q106.50 25.65 106.60 25.65Q106.80 25.65 106.80 25.35Q106.80 25.25 106.85 24.95Q106.90 24.65 106.95 24.55Q106.95 24.60 107.05 24.80Q107.10 24.70 107.20 24.55Q107.30 24.40 107.40 24.20L107.80 23.80Q107.90 23.55 107.85 23.55Q108 23.45 108.35 23.10Q108.40 23 108.40 22.88Q108.40 22.75 108.45 22.55Q108.80 22.35 108.80 22.15Q109.05 22.05 109.30 21.80Q109.25 21.70 109.25 21.60Q109.25 21.50 109.20 21.35Q109.25 21.30 109.25 21.22Q109.25 21.15 109.30 21.10Q110.20 21 110.25 20.35L111 19.75Q111.10 19.65 111 19.60Q111.15 19.60 111.30 19.05Q111.70 18.75 112 18.70Q111.95 18.80 112.05 19Q112.15 18.85 112.33 18.63Q112.50 18.40 112.75 18.10Q112.70 18.05 112.65 18.10Q112.65 18.05 112.65 17.95Q112.65 17.85 112.70 17.65L112.90 17.65Q113 17.65 113.17 17.47Q113.35 17.30 113.45 17.30L113.50 17.35L113.50 16.95Q113.65 16.80 113.70 16.90Q113.80 16.80 113.92 16.65Q114.05 16.50 114.25 16.30Q114.55 16.35 114.58 16.35Q114.60 16.35 114.70 16.45Q115.20 15.65 115.10 15.65Q115.40 15.65 115.45 15.70Q115.70 15.40 115.75 15.40Q115.75 15.40 115.75 15.40L115.75 15.40Q115.70 15.40 115.90 15.60Q116.40 15.10 116.35 15.10L116.45 15.10Q116.45 15.15 116.50 15.15Q116.60 15.15 116.70 15Q116.80 14.85 116.90 14.85Q116.90 14.85 116.90 14.85L116.90 14.85Q117 14.90 117.05 14.90Q117.10 14.85 117 14.75Q117.30 14.70 117.95 14.20Q118 14.20 118.22 14.20Q118.45 14.20 118.85 14.15Q119.10 14 119.10 13.95L119.10 14L119.15 14Q119.20 14 119.28 13.95Q119.35 13.90 119.45 13.90Q119.40 13.90 120.45 13.55Q121.05 13.35 121.50 13.35Q121.55 13.35 121.55 13.40Q121.50 13.45 121.55 13.45Q121.60 13.45 121.78 13.38Q121.95 13.30 122 13.30Q122.05 13.30 122.18 13.38Q122.30 13.45 122.35 13.45Q122.45 13.45 122.70 13.20Q122.85 13.20 123.22 13.10Q123.60 13 123.65 13Q123.70 13 123.78 13.07Q123.85 13.15 123.90 13.15Q123.95 13.15 123.97 13.07Q124 13 124.05 13Q124.10 13 124.20 13.15Q124.30 13.30 124.35 13.30L124.90 13.30L125 13.40Q125.10 13.40 125.15 13.45L125.40 13.45Q125.45 13.40 125.50 13.40Q125.60 13.40 125.72 13.47Q125.85 13.55 125.90 13.55L126 13.55Q126.05 13.50 126.10 13.50Q126.20 13.50 126.33 13.63Q126.45 13.75 126.55 13.75Q126.60 13.75 126.60 13.70L126.65 13.70Q126.75 13.80 126.85 13.95Q126.95 14.10 127.45 14.20Q127.50 14.20 127.55 14.30Q127.60 14.40 127.65 14.40Q127.75 14.35 127.80 14.35Q127.85 14.40 127.95 14.70Q128.45 14.80 128.63 15.13Q128.80 15.45 129 15.50L129 15.45L129.15 16.15Q129.20 16.40 129.25 16.77Q129.30 17.15 129.40 17.65Q129.30 17.75 129.20 17.75L128.85 19.40Q128.55 20.75 127.90 21.60L127.40 22.25Q127.50 22.55 127.35 22.75Q126.90 23.40 126.45 23.40Q126.35 23.40 126.30 23.35L126.15 23.35Q126.20 23.30 126.20 23.10Q126.65 22.70 126.65 22.30L126.85 22.10L126.85 21.90Q127.35 21.40 127.35 20.70Q127.55 20.70 127.70 20.55Q127.55 20.05 127.50 20Q127.55 19.90 127.72 19.70Q127.90 19.50 127.80 19.25Q127.75 19.20 127.65 19.20Q127.75 19 127.90 18.95L128 18.50L127.70 18.05L128.05 17.70Q128.15 17.40 127.95 17.30L128.10 17.15Q128.10 16.90 127.97 16.92Q127.85 16.95 127.75 16.75Q127.65 16.55 127.65 15.75Q127.45 15.55 127.40 15.30L127.30 15.40L127.30 14.95L127.20 15.10Q127.05 15.05 126.97 14.85Q126.90 14.65 126.85 14.65L126.80 14.65Q126.80 14.70 126.75 14.70Q126.65 14.70 126.45 14.50Q126.25 14.30 126.20 14.30Q126.10 14.30 126.10 14.35Q126.10 14.40 126 14.40Q125.95 14.40 125.88 14.35Q125.80 14.30 125.75 14.30Q125.65 14.30 125.65 14.35Q125.65 14.40 125.60 14.40L125.45 14.40Q125.40 14.35 125.30 14.35Q125.20 14.35 125.10 14.25L125 14.35Q124.30 14.35 124.35 14.30Q123.90 14.30 123.35 14.65Q123.30 14.50 123.05 14.50L123 14.50Q122.80 14.50 122.65 14.80Q122.55 14.80 122.45 14.70Q122.20 14.75 121.68 15.10Q121.15 15.45 120.95 15.45L120.70 15.45Q120.70 15.45 120.50 15.25Q120.05 15.85 120 15.85Q119.95 15.85 119.65 15.95Q119.65 15.85 119.55 15.75Q119.45 15.85 119.30 15.97Q119.15 16.10 118.45 16.80Q118.05 16.65 118 16.60Q117.90 16.55 117.72 16.88Q117.55 17.20 117.45 17.30Q117.50 17.30 117.45 17.30L117.45 17.30Q117.45 17.25 117.40 17.20Q117.15 17.20 117 17.25Q116.90 17.50 116.45 17.80L116.30 17.70L115.90 18.05Q115.95 18.10 115.95 18.45Q114.80 19.15 115 19.15Q114.90 19.15 114.72 18.95Q114.55 18.75 114.65 18.65L114.55 18.65Q114.25 18.65 114.20 19Q114.20 19.10 114.25 19.05Q114.40 19.25 114.40 19.40Q114.40 19.60 114.15 19.85Q114.10 19.95 114.05 20.07Q114 20.20 113.75 20.45Q113.05 21.10 113.10 21.30Q113.10 21.25 113 21.25Q112.80 21.25 112.65 21.50Q112.50 21.75 112.40 21.90L111.60 22.70L111.30 23.30L110.60 23.90Q110.55 23.95 110.50 24.10Q110.45 24.25 110.40 24.50Q109.90 24.60 109.85 24.80Q109.20 25.55 108.55 26.75L108.30 26.95Q107.90 27.55 107.28 28.48Q106.65 29.40 105.80 30.65Q105.75 30.75 105.70 30.90Q105.65 31.05 105.35 31.25Q105.30 31.30 105.35 31.35Q105.15 31.55 104.90 31.95L103.85 33.85Q103.70 34 103.55 34.17Q103.40 34.35 103.20 34.70Q102.85 35.30 102.30 36.08Q101.75 36.85 101.05 37.80L100.50 38.75Q100.30 38.80 100.05 39.05Q99.85 39.35 99.63 39.83Q99.40 40.30 99.05 40.95Q99.15 41.05 99.15 41.05Q99.15 41.05 99.25 40.95Q99.25 40.95 99.25 40.95L99.30 40.95Q99.30 40.95 99.30 40.95Q99.30 40.95 99.25 40.95Q99.30 41 99.90 41.15L100 41.05L100.15 41.05Q100.25 41.05 100.40 41.08Q100.55 41.10 100.75 41.15Q101 41.30 100.85 41.30Q100.95 41.30 100.95 41.25Q100.95 41.20 101.05 41.20Q101.10 41.20 101.17 41.25Q101.25 41.30 101.35 41.30L101.45 41.30Q101.50 41.25 101.55 41.25Q101.75 41.25 101.92 41.38Q102.10 41.50 102.40 41.50Q102.45 41.50 102.55 41.42Q102.65 41.35 102.70 41.35Q102.75 41.35 102.83 41.42Q102.90 41.50 102.95 41.50Q103.05 41.50 103.05 41.48Q103.05 41.45 103.10 41.40Q103.10 41.40 103.10 41.40Q103.10 41.40 103.10 41.40Q103.10 41.40 103.10 41.40L103.10 41.40L103.10 41.40L103.10 41.40Q103.10 41.45 103.25 41.60Q103.55 41.50 103.55 41.50Q103.65 41.50 103.80 41.60Q103.95 41.70 104 41.70Q104.10 41.70 104.10 41.65L104.15 41.65Q104.20 41.65 104.33 41.73Q104.45 41.80 104.55 41.80Q104.60 41.80 104.65 41.75Q104.70 41.70 104.75 41.70Q104.75 41.70 104.75 41.70L104.75 41.70Q104.75 41.70 105.35 42.05L105.55 41.85Q105.50 41.90 105.50 42.05L105.70 42.10Q105.75 42.10 105.75 42.05Q105.75 42 105.80 42Q105.85 42 105.95 42.08Q106.05 42.15 106.15 42.15Q106.20 42.15 106.15 42.10Q106.10 42.05 106.20 42.05Q106.25 42.05 106.33 42.15Q106.40 42.25 106.50 42.25Q106.60 42.25 106.65 42.20Q106.95 42.55 107 42.55Q107.15 42.55 107.30 42.50L107.60 42.50L108 42.60Q108.10 42.60 108.15 42.50Q108.20 42.40 108.25 42.40Q108.25 42.40 108.25 42.40L108.25 42.40Q108.15 42.45 108.80 42.80Q109 42.80 109.30 43.10L109.55 42.85L109.70 43.05L109.80 43Q109.90 43 110.15 43.17Q110.40 43.35 110.45 43.35Q110.50 43.35 110.45 43.30Q110.45 43.25 110.45 43.25Q110.45 43.25 110.45 43.25Q110.45 43.25 110.45 43.30Q110.50 43.30 110.90 43.30Q110.95 43.30 111.08 43.40Q111.20 43.50 111.25 43.50Q111.35 43.50 111.50 43.35Q111.65 43.65 111.80 43.65Q111.75 43.65 112 43.55Q112.10 43.60 112.30 43.65Q112.50 43.70 112.70 43.80Q113.25 44.15 113.35 44.15Q113.45 44.15 113.45 44.10Q113.45 44.05 113.55 44.05Q113.60 44.05 113.70 44.15Q113.80 44.25 113.85 44.25L113.95 44.25Q113.90 44.20 114 44.20Q114.40 44.20 115 44.52Q115.60 44.85 115.55 44.85Q115.60 44.85 115.75 44.70Q115.80 44.75 115.83 44.88Q115.85 45 115.95 45L116.15 45Q116.35 45 116.80 45.20L116.85 45.20Q116.85 45.15 116.95 45.15Q117 45.15 117.67 45.50Q118.35 45.85 118.70 45.90Q118.70 45.90 119.10 46.15Q119.25 46.15 119.47 46.23Q119.70 46.30 119.60 46.30L119.75 46.30Q119.75 46.35 119.70 46.40Q120.05 46.65 120.50 46.90L121 47L121.80 47.45Q121.85 47.45 121.80 47.50Q121.75 47.55 121.85 47.55Q121.80 47.55 121.95 47.50Q121.95 47.70 122.05 47.70L122.55 47.70Q122.60 47.75 122.60 47.65Q122.60 47.40 122.40 47.40Q122.40 47.40 122.35 47.42Q122.30 47.45 122.25 47.45Q122.30 47.35 122.30 47.27Q122.30 47.20 122.30 47.20Q121.95 46.70 121.95 46.25Q121.95 46.05 122.05 45.75L121.60 45.45Q121.60 45.30 121.55 45.15L121.45 45.25L121.45 45.05Q121.50 45 121.50 44.85Q121.50 44.60 121.35 44.15Q121.50 44.15 121.60 44.05Q121.35 43.75 121.10 42.60Q121.20 42.30 121.20 42.15Q121.20 41.85 121.05 41.55Q121.15 41.40 121.10 41.35L121.05 41.30Q121.30 41.05 121.05 41.05Q121.10 41 121.10 40.70Q121.15 40.70 121.20 40.75L121.45 40.55L121.75 42.20Q121.65 42.35 121.75 42.60L122.25 45.05Q122.50 45.20 122.58 45.42Q122.65 45.65 122.85 46.05Q122.85 46.70 124.20 48.60L124.95 48.90Q125.15 49 125.50 49.25Q125.85 49.50 126.40 49.90Q126.45 50.05 126.35 50.25Q126.40 50.55 126.80 51.25Q126.75 51.30 126.70 51.38Q126.65 51.45 126.50 52.35Q126.45 52.40 126.45 52.45Q126.45 52.80 126.68 53.08Q126.90 53.35 127.55 53.75L127.55 54L127.20 54M127.50 20.05Q127.50 20.05 127.50 20.05Q127.50 20.05 127.50 20L127.50 20.05M105.95 43.25Q105.95 43.25 105.90 43.25L105.95 43.25ZM126.40 52.65Q125.30 51.90 125.20 51.90Q125.15 51.90 125.05 52Q123.65 50.60 123.65 49.55Q123.65 46.80 129.45 41.15L129.35 40.65L127.85 39.60Q127.40 38.90 126.95 37.10Q127.30 36.75 127.73 36.17Q128.15 35.60 128.70 34.80L129.65 34.50L129.80 34.55L131.60 33.80L131.90 33.90Q132.30 33.90 133.03 33.83Q133.75 33.75 134.80 33.65Q135.75 33.55 136.48 33.52Q137.20 33.50 137.75 33.55Q137.75 33.55 138.05 33.52Q138.35 33.50 138.95 33.45L139.10 33.55L140.60 32.85L140.70 32.90Q141.85 32.60 144.60 31.25Q147 30.10 148.65 29.90Q147.85 30.50 144.95 31.60Q142.50 32.55 141.55 33.75L141.80 34.20L142.45 33.75Q142.45 33.90 143.25 33.95Q145.75 34.25 148.25 34.25L148.60 34.70Q148.85 34.75 149.18 34.77Q149.50 34.80 149.95 34.80Q150.80 34.80 151.55 34.85Q152.30 34.90 152.80 35.15L153.70 34.25L153.80 34.35Q156.75 32 159.33 29.65Q161.90 27.30 164.10 25L164.10 23.85L163.80 23.55L164 22.60Q163.85 22.50 163.85 22.15Q163.85 21.40 163.90 21.10Q163.95 20.80 163.95 21.05Q163.95 18.45 164.15 17.90Q164.70 16.45 166.80 16.45L167.25 16.65L167.55 17.30Q167.35 18.20 167.03 19.17Q166.70 20.15 166.30 21.20L166.55 22.75Q169.65 19.40 172.13 16.38Q174.60 13.35 176.45 10.70Q176.55 11.55 175.55 13.30Q174.55 15.05 172.25 17.55L166.35 24.05Q166.90 24.85 166.90 25.75Q166.90 26.35 166.70 26.90L166.95 26.85L167.70 28.95L167.65 29.25Q167.65 30.10 168.40 32.20Q169.20 34.30 169.15 35.10L169.75 35.50L169.75 35.70Q169.75 36.15 170.15 36.15Q170.90 36.15 172.75 35.75Q173.65 35.55 174.33 35.45Q175 35.35 175.45 35.35L175.70 35.40Q174.65 36.10 173.60 36.50Q172.55 36.90 171.55 37L171.45 36.90L170.90 37.20L171 37.80L171.15 37.70L172.25 39.95L172.10 40.25L173.05 41.35L173.45 41.25L173.55 40L173.70 40.10Q173.85 40.95 175.50 42.60L175.60 42.55Q177.05 43.15 177.30 43.85L176.45 44.30Q176.05 44.10 175.45 43.75Q174.85 43.40 174.05 42.90L173.95 42.95Q173.45 42.95 173 42.35Q172.80 42.10 172.60 41.88Q172.40 41.65 172.20 41.40L172.20 41.25Q171.35 40.70 170.50 39.05L170.35 39.20L169.95 38.25L169.80 38.30L168.85 37.15L167.55 37.25L167.40 37.15L166.45 37.30Q165.90 37.30 158.45 36.70L158.25 36.90L156.20 36.55Q155.55 36.45 155.05 36.38Q154.55 36.30 154.15 36.30Q153.05 36.30 150.80 38.90L150.55 38.85L150.30 39.35Q149.85 39.90 147.30 41.65Q146.05 42.45 145.30 42.95Q144.55 43.45 144.20 43.60L143.85 44.40L138.75 48.05L138.65 48L133.90 50.95L133.45 50.90Q133.25 50.90 132.70 51.50L132.10 51.25L131.45 51.75L130.90 51.50Q130.45 51.50 130.55 52.05L129.75 52.45L129.30 52.10L128.55 52.50Q128.30 52.45 128.05 52.42Q127.80 52.40 127.55 52.40Q126.90 52.40 126.40 52.65M165.75 36.25Q166.20 36.25 166.58 36.23Q166.95 36.20 167.20 36.15L167.35 36.25L167.55 36.15L168.05 36.15L168.10 35.90L167.95 35.35Q167.70 35.35 166.85 33.55Q166.05 31.75 165.95 31.15L165.70 31.05L165.75 30.90Q165.75 30.70 165.60 30.35L165.60 30.15L165.35 29.95L165.40 29.75Q165.05 29.25 164.35 27.10L164.60 26.50L164.40 26.05Q164.20 26.15 163.98 26.40Q163.75 26.65 163.50 27Q163.15 27.25 162.20 28.07Q161.25 28.90 159.75 30.35Q156.60 33.35 156.45 33.80L156 34.10L155.85 34L155.20 35L155.30 35.15L155.45 35Q155.80 35.35 156.25 35.25L156.60 35.55L156.65 35.55Q156.90 35.55 157.30 35.30L157.40 35.50Q158 35.50 158.15 35.45L158.25 35.80L158.85 35.55L159.10 35.70L160.10 35.60L160.60 35.85L160.70 35.70Q160.85 35.95 161.30 35.95Q161.60 35.95 161.80 35.90Q161.85 36.10 162.80 36.10Q163.15 36.10 163.45 36.02Q163.75 35.95 164.10 35.85Q164.55 35.95 164.75 36.05Q164.85 36 164.93 36Q165 36 165 36Q165.15 36 165.38 36.13Q165.60 36.25 165.75 36.25M130.50 39.95Q130.60 39.55 130.70 39.40L131.10 39.70Q132.45 38.80 134 37.40L134 37.60Q136.15 35.60 136.65 35.55L136.70 35.35L136.60 35.20Q136.45 35.25 136.35 35.25Q136.25 35.25 136.15 35.25Q136.05 35.25 135.93 35.20Q135.80 35.15 135.70 35.15Q135.50 35.15 135.13 35.20Q134.75 35.25 134.55 35.25Q133.75 35.25 133.85 35.20Q133.70 35.15 133.55 35.15Q133.20 35.15 132.63 35.23Q132.05 35.30 131.30 35.40L131.15 35.30Q130.95 35.30 130.65 35.38Q130.35 35.45 130.25 35.45L130.05 35.60Q129.80 35.60 128.40 36.30L128.30 36.20Q128 36.40 127.85 36.45L127.85 37.35Q127.95 37.35 128 37.30Q128.10 37.30 128.35 37.85Q128.60 38.40 128.80 38.40Q128.85 38.35 128.95 38.35L128.95 38.50Q129 38.50 129.20 38.50Q129.35 38.50 129.35 38.65L129.20 38.75L129.10 38.95Q129.45 39 129.70 39.35L129.80 39.10L129.75 38.90L129.85 38.90Q130 39.20 130.20 39.40L130.15 39.45Q130.15 39.90 130.50 39.95M126.60 51.10L127.00 50.80L127.65 50.85L127.75 50.75Q127.80 50.80 127.85 50.85Q127.90 50.90 127.95 50.95L128 50.80L128.25 51.10Q128.40 50.30 129.25 50.30Q129.45 50.30 129.50 50.35L129.90 50L130.15 50.25Q130.50 50.25 131.15 49.65L131.75 50L132.05 49.85L132.20 49.30L132.30 49.35L136.05 47.10Q138.40 45.70 139.90 45.15Q140.65 44.25 145.20 41.20Q147.40 39.75 148.63 38.80Q149.85 37.85 150.10 37.35L150.45 37.25Q150.60 37.05 150.78 36.83Q150.95 36.60 151.15 36.30L151.10 36.15Q150.80 36.20 150.40 36.20Q150 36.20 149.45 36.20Q147.60 36.20 146.25 35.80L146.05 35.90Q145.15 35.55 143.15 35.55Q142.10 35.50 141.35 35.45Q140.60 35.40 140.20 35.30L140.10 35.50L138.25 35.25Q137.45 35.75 136.65 36.27Q135.85 36.80 135 37.35L133.60 38.60Q133.30 38.65 132.73 39.25Q132.15 39.85 132 40.20L132.10 40.60L132.55 40.40Q133 40.80 133.80 41.50L134.30 41.35L134.35 41.50Q134.65 41.50 134.85 41.65L135.50 41.50L135.80 41.85L135.60 42.05L135.25 42.10L134.90 42.35L134.45 42L134.30 42.05Q133.85 42.05 133.15 41.70L132.85 41.90L132.40 41.70L132.30 41.90Q132.20 41.85 132.13 41.70Q132.05 41.55 131.95 41.40L131.40 41.60L131.35 41.40L130.75 41.55L130.50 41.30Q125.15 47.35 125.15 49.35Q125.15 50.85 126.60 51.10ZM202.55 51.40Q202.55 51.35 202.45 51.23Q202.35 51.10 202.35 51.05Q202.35 51 202.48 50.80Q202.60 50.60 202.65 50.50Q202.70 50.45 203.03 50.13Q203.35 49.80 203.40 49.80Q203.35 49.80 203.40 49.80L203.40 49.80Q203.40 49.85 203.55 50Q203.65 49.85 203.70 49.70Q203.75 49.55 203.80 49.35Q204 49.30 204.30 49.05Q204.45 48.85 204.80 48.40Q205.15 47.95 205.95 47Q206.25 46.95 206.60 46.05Q206.60 46 206.60 45.90Q206.60 45.80 206.65 45.65Q206.70 45.70 206.80 46Q207.10 45.90 207.15 45.70Q207.80 45.15 208.55 43.75Q209.10 43.20 209.30 43.15Q209.40 42.55 209.30 42.55Q209.45 42.50 209.55 42.20Q209.75 42.20 210.40 41.30L210.60 41.05Q210.95 40.90 211.50 40.20Q211.60 40.10 211.70 40Q211.80 39.90 212 39.80Q212.05 39.70 211.95 39.50Q212.25 39.50 212.15 39.60L212.20 39.60Q212.50 39.60 212.55 38.90Q212.50 38.90 212.55 38.85L212.55 38.90Q212.55 38.90 212.65 38.90Q212.60 38.90 212.95 38.55Q213.05 38.45 213.25 38.25Q213.45 38.05 213.50 37.80L213.50 37.60Q213.55 37.50 213.63 37.40Q213.70 37.30 213.75 37.20Q214 36.70 214.10 36.70Q214.05 36.65 214 36.55Q213.95 36.45 213.90 36.35Q213.30 37.05 213.30 37.20Q213.30 37.35 213.25 37.50Q213.15 37.50 213.03 37.42Q212.90 37.35 212.80 37.35Q212.15 37.35 212.50 37.80L212.25 37.90Q211.75 38.55 211.30 39.02Q210.85 39.50 210.45 39.90L209.35 40.80Q209.30 40.85 209.30 40.90Q209.30 40.95 208.90 41.20Q208.70 41.40 208.48 41.67Q208.25 41.95 208 42.30L206.85 43.55Q206.65 43.75 206.30 44.02Q205.95 44.30 205.50 44.70L205.05 45.20Q205.05 45.10 204.95 45Q205 44.75 205.28 44.40Q205.55 44.05 206.20 43.35L208.55 40.75L209.75 39.75Q210.25 39.10 211.50 37.70Q211.90 37.50 212.25 37.20L212.35 37Q213.25 36.30 213.85 35.50L214.30 35.25Q214.40 35.10 214.68 34.88Q214.95 34.65 215.55 34.25Q216.85 33 216.80 32.70Q217.40 32.40 217.35 31.65L217.45 32Q217.75 32 217.85 31.65Q217.95 31.30 218 31L219.10 29L219.30 28.25Q219.40 28.20 219.45 27.95Q219.50 27.70 220 26.95L220 26.80Q220 26.65 220.03 26.50Q220.05 26.35 220.10 26.20Q220.20 26.15 220.40 25.85Q220.50 25.75 220.50 25.45L220.40 25.10L220.40 24.85Q220.40 24.85 220.70 24.50Q220.80 24.40 220.70 24.30L221.15 23.50L221.15 23.30Q221.15 23.20 221.15 22.97Q221.15 22.75 221.10 22.45L221.20 22.30L221.20 21.60Q221.35 21.05 221.35 21.25Q221.35 20.75 221.30 20.60L220.55 19.10Q220.35 18.80 219.95 18.80L219.75 18.85Q219.75 18.75 219.80 18.70Q219.65 18.45 219.45 18.45L219.35 18.45Q219.35 18.50 219.30 18.50L219.30 18.50L219.25 18.50Q219.30 18.50 219.30 18.50Q219.30 18.45 218.80 18.30Q218.50 18.20 218.25 18.20Q218.20 18.20 218.25 18.25Q218.25 18.35 218.20 18.35Q218.10 18.35 218.08 18.30Q218.05 18.25 218 18.25Q217.90 18.25 217.83 18.35Q217.75 18.45 217.70 18.45Q217.60 18.45 217.35 18.40Q217.10 18.35 217 18.35L215.90 18.50L214.85 18.60Q214.55 18.80 214.43 18.80Q214.30 18.80 213.75 19Q213.30 19.20 213.10 19.20Q213 19.20 212.10 19.50L211.95 19.70Q209.10 20.70 206.90 21.95Q206.70 22 206.48 22.13Q206.25 22.25 205.90 22.35L202.45 24Q201.30 24.70 201.50 24.70L201.40 24.70Q201.40 24.65 201.30 24.65Q201.40 24.65 201.05 24.80Q200.70 24.95 200.25 25.45Q199.75 25.45 199.70 25.65Q199.60 25.65 199.70 25.55Q199.70 25.50 199.65 25.50Q199.60 25.50 199.23 25.88Q198.85 26.25 198.80 26.25Q198.75 26.25 198.70 26.20L198.65 26.20Q198.65 26.20 198 26.45Q197.85 26.50 197.85 26.70L196.80 27.30Q196.85 27.30 196.15 27.75L194.90 28.35L193.20 29.25Q193.15 29.25 193.15 29.40Q193.15 29.35 193.05 29.35Q192.70 29.35 192.30 29.70Q192.20 29.70 192.10 29.75Q191.75 29.95 191.15 30.35Q191.10 30.35 190.45 30.85Q190.35 30.75 190.20 30.75Q190.15 30.75 190.03 30.85Q189.90 30.95 189.85 30.95Q189.75 30.95 189.78 30.90Q189.80 30.85 189.75 30.85Q189.40 30.85 189.10 31.45Q188.70 31.45 188.33 31.73Q187.95 32 187.85 32Q187.80 32 187.40 32.30Q187.20 32.35 186.90 32.45Q186.60 32.55 186.20 32.70Q186.10 32.75 185.80 33Q185.50 33.25 185.40 33.25L185.35 33.25Q185.40 33.20 185.30 33.20Q185.25 33.20 185.18 33.30Q185.10 33.40 185.05 33.40Q184.95 33.40 184.10 33.65L183.95 33.55Q183.45 33.90 183.40 33.90Q183.35 33.90 183.30 33.85Q183.25 33.80 183.15 33.80Q183.05 33.80 182.83 33.95Q182.60 34.10 182.50 34.10L182.45 34.10Q182.45 34.05 182.40 34.05Q182.35 34.05 182.38 34.13Q182.40 34.20 182.30 34.20Q182.25 34.20 182.18 34.15Q182.10 34.10 182.05 34.10Q181.95 34.10 181.97 34.17Q182 34.25 181.95 34.25Q181.85 34.25 181.90 34.20L181.85 34.20Q181.55 34.20 181.65 34.25L181.55 34.35Q181.35 34.35 181.03 34.30Q180.70 34.25 180.65 34.25Q180.60 34.25 180.55 34.33Q180.50 34.40 180.45 34.40Q180.35 34.40 179.85 34.25Q179.35 34.10 179.30 34.10Q179.35 34.10 179.05 34.25L178.20 33.80Q177.95 33.65 177.95 33.60L177.95 33.65L177.90 33.65Q177.75 33.65 176.95 32.55L176.95 32.20Q177 32.15 177 32.05Q177 31.45 177.30 30.40Q177.20 30.25 177.95 29Q178.20 28.80 178.45 28.52Q178.70 28.25 178.95 27.85Q179.50 27.35 179.85 26.90Q180 26.75 180.40 26.60L180.50 26.40Q180.75 26.15 181.18 25.82Q181.60 25.50 182.15 25.10Q182.25 25.05 182.45 24.85Q182.65 24.65 183 24.55Q183.35 24.05 183.55 24.05L183.60 24.05Q183.60 24.10 183.65 24.10Q183.65 24.10 183.72 24Q183.80 23.90 184.05 23.90L184.20 23.80Q184.30 23.80 184.30 23.75L184.35 23.75L184.85 23.40L184.85 23.75L183.95 24.40L183 24.90L181.75 25.90Q181.50 26.25 180.80 26.65Q180.70 27 179.90 27.60Q179.90 27.65 179.90 27.75Q179.90 27.85 179.85 27.95Q179.85 27.95 179.83 27.95Q179.80 27.95 179.75 27.90Q179.55 28.10 179.45 28.50Q179.35 28.40 179.30 28.40Q179.25 28.50 179.18 28.70Q179.10 28.90 178.90 29.15L178.55 29.30L178.55 29.40Q178.55 29.85 178 30.15Q178 30.20 178.03 30.20Q178.05 30.20 178.05 30.25Q178.05 30.45 177.85 30.77Q177.65 31.10 177.65 31.20Q177.65 31.25 177.72 31.40Q177.80 31.55 177.80 31.65Q177.80 31.70 177.80 31.80Q177.80 31.90 177.75 32.05Q177.80 32.20 177.95 32.33Q178.10 32.45 178.30 32.55Q178.60 32.70 178.65 32.75Q178.65 32.75 178.70 32.75Q178.75 32.75 178.75 32.85Q178.75 32.95 178.80 32.95Q178.90 32.95 178.95 32.83Q179 32.70 179.10 32.70Q179.15 32.70 179.15 32.75L179.25 32.75Q179.35 32.75 179.35 32.60Q179.40 32.65 179.45 32.70Q179.50 32.75 179.60 32.85L179.70 32.85Q179.85 32.85 180 32.80Q180.25 32.70 180.45 32.80L181.25 32.95Q181.35 32.95 181.60 32.80Q181.85 32.65 182.15 32.65L182.35 32.65Q182.40 32.70 182.55 32.70L182.65 32.60Q182.80 32.55 183.05 32.42Q183.30 32.30 183.35 32.30Q183.40 32.30 183.50 32.35Q183.60 32.40 183.65 32.40Q183.50 32.40 183.93 32.23Q184.35 32.05 185.10 31.90Q185 31.80 185.15 31.80L185.30 31.80Q185.35 31.85 185.50 31.85Q185.55 31.85 185.55 31.80Q185.55 31.75 185.60 31.75L185.70 31.75Q185.65 31.80 185.75 31.80Q185.80 31.80 185.90 31.67Q186 31.55 186.05 31.55Q186.10 31.55 186.10 31.60L186.20 31.60Q186.25 31.60 186.30 31.52Q186.35 31.45 186.40 31.45L186.50 31.45Q186.55 31.50 186.60 31.50Q186.85 31.40 187.25 31.17Q187.65 30.95 188.20 30.65Q188.30 30.70 188.50 30.65Q188.70 30.50 189.05 30.35Q189.40 30.20 190.30 29.85Q190.55 29.70 191.10 29.30Q191.65 28.90 191.75 28.90Q191.80 28.90 191.75 28.95Q191.70 29 191.80 29Q192.30 29 192.70 28.45Q192.80 28.40 193.05 28.20Q193.30 28 193.40 28Q193.45 28 193.47 28.05Q193.50 28.10 193.55 28.10Q193.60 28.10 193.85 27.90Q194.10 27.70 194.15 27.70L194.20 27.70Q194.20 27.75 194.25 27.75Q194.55 27.75 195.35 27Q195.70 26.65 195.65 26.65Q195.75 26.65 195.70 26.70L195.80 26.70Q196.05 26.70 196.25 26.55Q197.75 25.65 197.70 25.65L197.80 25.65Q197.80 25.70 197.85 25.70Q197.65 25.70 199.20 24.90Q199.40 24.90 199.90 24.50Q199.95 24.50 200.05 24.45Q200.15 24.40 200.60 24.15Q201.10 23.85 201.10 23.75L201.35 23.75Q201.25 23.75 201.35 23.85Q201.70 23.60 202.23 23.25Q202.75 22.90 203.40 22.50L203.45 22.50Q203.50 22.50 203.90 22.30L204.50 22Q204.65 21.90 204.75 21.60L204.90 21.75Q205 21.65 205.30 21.47Q205.60 21.30 206.30 21L206.55 20.75Q206.75 20.70 206.98 20.60Q207.20 20.50 207.45 20.40L208.35 19.70Q208.60 19.65 209.03 19.45Q209.45 19.25 210.30 18.80Q210.50 18.80 210.85 18.65Q211.70 18.15 211.65 18.15Q211.70 18.15 211.70 18.20L211.75 18.20Q211.90 18.20 212.80 17.85Q213.80 17.45 213.90 17.30Q214 17.40 214.15 17.40Q214.20 17.40 214.28 17.32Q214.35 17.25 214.40 17.25Q214.45 17.25 214.55 17.35Q214.65 17.35 214.70 17.15Q214.75 17.20 214.95 17.20Q215.05 17.20 215.38 17.02Q215.70 16.85 215.75 16.85L216 16.85Q216.10 16.90 216.20 16.90Q217 16.90 217.40 16.50Q217.45 16.55 217.70 16.55Q217.75 16.55 217.98 16.55Q218.20 16.55 218.65 16.60Q219.15 16.65 219.38 16.65Q219.60 16.65 219.65 16.65Q219.50 16.65 219.80 16.55Q219.75 16.60 219.75 16.70Q219.75 16.90 220.05 17.05Q220.35 16.60 220.55 16.60Q220.85 16.60 222.10 17.15Q222.10 17.15 222.18 17.27Q222.25 17.40 222.35 17.40L222.40 17.40Q222.40 17.35 222.45 17.35Q222.75 17.35 222.95 18.30Q223.15 18.40 223.30 18.40Q223.35 18.50 223.48 18.70Q223.60 18.90 223.80 19.15Q223.80 19.20 223.83 19.32Q223.85 19.45 223.90 19.60Q224 19.95 224.05 20.20Q224.10 20.45 224.15 20.70L224.15 21.25Q224.15 21.30 224.23 21.42Q224.30 21.55 224.30 21.60Q224.30 21.65 224.23 21.77Q224.15 21.90 224.15 21.95Q224.20 22.10 224.20 22.60L224.05 22.80Q224 23.10 223.90 23.50Q223.80 23.90 223.80 24.30Q223.50 24.40 223.45 24.60Q223.35 25.10 223.20 25.13Q223.05 25.15 223.10 25.85Q222.80 26.15 222.55 26.60Q222.50 27.05 222.10 27.80L222.15 28L221.75 28.30Q221.75 28.30 221.85 28.75Q221.85 28.80 222 28.80Q222.20 28.80 222.35 28.40Q222.15 28.40 223 28.15Q223.40 28.05 223.38 27.98Q223.35 27.90 223.70 27.75Q224.05 27.50 224.35 27.27Q224.65 27.05 224.90 26.90Q225.05 26.90 225.30 26.72Q225.55 26.55 226 26.30L226.10 26.20L226.70 25.80Q226.85 25.75 227.08 25.68Q227.30 25.60 227.60 25.45Q228.10 25.05 228.35 24.85Q228.60 24.65 228.60 24.65Q228.65 24.65 228.65 24.70L228.75 24.70Q228.60 24.70 229.60 24.15Q230.25 23.95 231.55 23.15Q231.50 23.30 231.60 23.30Q231.85 23.30 232.55 22.90Q232.95 22.65 233.15 22.75Q233.20 22.75 233.25 22.70Q233.30 22.65 233.50 22.70L234.05 22.25Q234.05 22.35 234.15 22.35L234.35 22.35Q234.60 22.35 234.83 22.20Q235.05 22.05 235.25 22L235.40 22Q235.45 22.05 235.55 22.05L237.10 22.05Q237.15 22.05 237.23 21.97Q237.30 21.90 237.35 21.90Q237.40 21.90 237.38 21.97Q237.35 22.05 237.45 22.05L238 21.90Q238.20 21.90 239.35 22.70L239.50 22.60L239.95 23.30Q240.25 23.40 240.30 23.40L240.30 23.75Q240.35 23.90 240.35 24.05Q240.35 23.95 240 24.45L240 24.80Q239.95 24.85 239.90 24.90Q239.85 24.95 239.80 25.05Q239.80 25.25 239.80 25.50Q239.80 25.75 239.75 26.10L239.20 27.50L237.90 29.55Q237.80 29.65 237.63 29.82Q237.45 30 237.55 30.30Q237.10 30.50 236.70 31.15L236.75 31.70L236.90 31.55Q237 31.45 237.23 31.32Q237.45 31.20 237.70 31Q237.75 30.90 238 30.65L239.45 29.75Q240.30 29.30 240.10 29.30L240.20 29.30Q240.20 29.35 240.25 29.35Q240.30 29.35 240.43 29.25Q240.55 29.15 240.60 29.15Q240.65 29.15 240.65 29.20L240.75 29.20Q240.80 29.20 240.88 29.15Q240.95 29.10 241 29.10Q241.05 29.10 241.70 28.85Q242.35 28.60 242.40 28.60Q242.45 28.60 242.60 28.67Q242.75 28.75 242.85 28.75Q242.90 28.75 243.15 28.70Q243.40 28.65 243.50 28.65Q243.95 28.65 244.60 29.25Q244.70 29.40 244.93 29.63Q245.15 29.85 245.40 30.10Q245.45 30.30 245.55 30.45Q245.65 30.60 245.75 30.75L246.20 32.60Q246.20 32.65 246.32 32.92Q246.45 33.20 246.45 33.25Q246.45 33.25 246.25 33.60L246.15 33.50L246.05 33.55L245.95 33.45Q245.70 33.55 245.70 33.80Q245.70 33.85 245.78 34Q245.85 34.15 245.85 34.25L245.85 35.30Q245.95 35.45 246.05 35.67Q246.15 35.90 246.25 36.25Q246.30 36.45 246.35 36.73Q246.40 37 246.50 37.35Q246.65 37.50 246.88 37.75Q247.10 38 247.35 38.40Q247.60 38.80 247.90 38.95L248.05 38.95Q248.15 38.95 248.23 38.90Q248.30 38.85 248.40 38.85L248.55 38.95L249.15 38.95Q249.45 38.95 249.45 39.30Q249.45 39.60 249.10 39.80Q248.75 40 248.60 40Q248.55 40 248 39.60Q247.50 39.15 247.35 39.15Q247.20 39.15 247.30 39.25Q247.25 39.20 247.25 39Q247.10 38.95 246.30 37.70L245.65 37L245.35 36.10L244.95 35.75Q245.05 35.65 244.95 35.55Q244.85 35.45 244.70 34.95L244.55 34.50L243.90 33.65L243.35 32.55Q243.35 32.55 243.23 32.17Q243.10 31.80 242.85 31.45Q242.60 31.10 242.30 31.10Q242.20 31.10 242.20 31.15L242.15 31.15Q242.30 31.15 241.65 30.80Q241.60 30.70 241.20 30.65L241 30.40L240.85 30.70L240.50 30.55Q240.40 30.55 240.33 30.63Q240.25 30.70 240.20 30.70Q240.15 30.70 240.15 30.65L240.10 30.65Q240.05 30.65 239.95 30.80Q239.85 30.95 239.75 30.95Q239.60 30.95 239.60 30.85L239 31.20L238.80 31.15L237.50 31.95L237.40 31.95Q237.40 31.90 237.35 31.90Q237.45 31.90 236.30 32.90Q235.80 33.15 235.60 33.40Q235.30 33.65 234.85 34.02Q234.40 34.40 233.75 34.90Q233.25 35.30 233.08 35.55Q232.90 35.80 232.65 36.15Q232.60 36.15 232.45 36.40Q232.30 36.65 232.15 36.85Q232.15 36.85 232.15 36.85L232.15 36.85Q232.20 36.80 232.05 36.80Q232.20 36.80 231.90 36.90L231.35 37.65Q231.25 37.70 231.05 37.77Q230.85 37.85 230.50 38.05Q230.35 37.90 230.05 37.90L229.95 37.55Q229.95 36.95 230.30 36.95Q230.35 36.95 230.33 37Q230.30 37.05 230.40 37.05L231.10 36.40L231.60 35.80Q231.70 35.75 231.83 35.65Q231.95 35.55 232.15 35.40Q232.25 35.40 232.30 35.35Q232.50 35.15 232.73 34.85Q232.95 34.55 233.25 34.15Q233.25 34 233.30 33.90Q233.80 33.30 233.90 32.90L234.40 32.30L234.70 31.50L235.30 30.55L235.70 29.75Q236 29.05 236.33 28.15Q236.65 27.25 237 26.10Q237 25.95 237.05 25.90Q237.05 25.55 237 25.65Q237 25.45 236.98 25.32Q236.95 25.20 236.90 25.10L236.90 24.80Q236.85 24.65 236.75 24.45Q236.65 24.25 236.55 24Q236.55 24 236.25 23.90Q236.25 23.90 236.15 23.77Q236.05 23.65 236 23.65L235.90 23.65Q235.90 23.70 235.85 23.70Q235.85 23.70 235.50 23.50Q235.45 23.50 235.15 23.65Q234.85 23.80 234.80 23.80Q234.70 23.80 234.75 23.75L234.65 23.75Q234.60 23.75 234.45 23.85Q234.30 23.95 234.20 23.95L234.10 23.75L233.40 23.90Q233.05 24 232.90 24.07Q232.75 24.15 232.70 24.15Q232.65 24.15 232.65 24.10L232.60 24.10Q232.50 24.10 232.35 24.25L231.50 24.55Q231.10 24.35 230.90 24.35Q230.80 24.35 230.60 24.55Q230.55 24.70 230.35 24.82Q230.15 24.95 230.05 25.10Q230 25.10 229.90 25.05Q229.80 25 229.70 25Q229.60 25.10 229.65 25.25L229.55 25.25Q229.20 25.25 228.78 25.55Q228.35 25.85 227.35 26.25Q227 26.45 226.38 26.90Q225.75 27.35 225.70 27.35Q225.60 27.35 225.60 27.30L225.50 27.30Q225.45 27.30 224.60 28Q224.50 28.05 224.35 28.10Q224.20 28.15 223.95 28.20Q223.80 28.75 222.35 29.15Q222.25 29.45 221.55 29.80Q221.55 29.85 221.45 30.05Q220.80 30.25 220.45 30.75Q220.45 30.95 220.20 31.25Q219.70 31.75 219.60 32.30Q219.10 33.10 219.15 33.05Q219.20 33.10 219.15 33.10L219.15 33.05Q219.10 33.05 219 33L218.75 33.30Q218.75 33.40 218.70 33.67Q218.65 33.95 218.65 34.05L218.45 33.90Q218.40 33.90 218.35 33.85L218.05 34.35Q218 34.35 217.90 34.50Q217.45 34.70 217.50 35.20L216.90 35.75Q216.85 35.80 216.80 35.98Q216.75 36.15 216.65 36.45Q216.55 36.50 216.43 36.60Q216.30 36.70 216.10 36.80L215.90 37.35Q215.70 37.35 215.35 37.85Q215.25 37.95 215.13 38.10Q215 38.25 214.90 38.55Q213.85 39 213.70 40.05Q213.35 40.10 213.10 40.50Q213.10 40.65 212.95 41.05Q212.75 41.15 212.53 41.33Q212.30 41.50 212 41.75L211.55 42.35Q211.45 42.45 211.33 42.58Q211.20 42.70 211.10 42.75Q210.95 42.95 211.05 43.05Q210.95 43.10 210.80 43.15Q210.65 43.20 210.45 43.30L210.30 43.80Q210.30 43.95 210 44.05Q209.70 44.65 209.50 44.65Q209.40 44.65 209.35 44.60Q209.10 45.10 208.60 45.75Q208.55 45.80 208.55 45.90Q208.30 45.90 208.15 46.08Q208 46.25 207.90 46.25L207.85 46.25Q207.85 46.20 207.80 46.20Q207.80 46.20 207.70 46.35Q207.60 46.50 207.40 46.85L207.15 47.25Q206.85 47.35 206.80 47.55Q206.50 47.65 206.33 47.95Q206.15 48.25 206.10 48.25L206 48.25Q205.95 48.20 205.90 48.20Q205.70 48.20 205.55 48.60Q205.20 48.75 205.10 49L204.20 49.75Q203.65 50 203.45 50.30L203.45 50.35Q203.45 50.50 203.33 50.75Q203.20 51 202.55 51.40M184.65 24.35L184.45 24.15L184.50 24.05L184.70 24.25L184.65 24.35M178.60 32.80L178.65 32.80Q178.65 32.80 178.65 32.80Q178.65 32.80 178.60 32.80M246.45 33.25L246.45 33.25Q246.45 33.25 246.45 33.25M201.55 52.05L201.70 51.55Q201.80 51.50 201.95 51.50Q202.20 51.50 202.20 51.95Q201.65 52.15 201.55 52.05ZM264.15 50.25Q264.10 50.25 263.95 50.10Q263.80 49.95 263.70 49.95Q263.55 50 262.75 50.05Q262.55 50.15 262.65 50.15Q262.60 50.15 262.55 50.10Q262.55 50 261.15 49.95Q260.25 49.65 259.95 49.65Q259.85 49.65 259.75 49.75Q259.50 49.50 259.35 49.50Q259.30 49.50 259.30 49.55L259.20 49.55Q259.15 49.55 259.05 49.48Q258.95 49.40 258.90 49.40Q258.85 49.40 258.80 49.45L258.75 49.45Q258.55 49.45 258.40 49.30Q258.25 49.15 258.20 49.10L257.90 49.10Q257.60 48.60 257.05 48.48Q256.50 48.35 256.35 48.15Q256.25 48.15 256.20 48.20Q256.10 48.15 255.95 47.98Q255.80 47.80 255.45 47.55Q255.45 47.50 255.35 47.30Q254.55 47.15 254 46.10Q254 46.05 253.85 46.05Q253.85 46.10 253.83 46Q253.80 45.90 253.75 45.65L253.45 45.45Q253.55 45.35 253.45 45.20Q253.25 45 253 44.63Q252.75 44.25 252.60 43.95Q252.60 43.90 252.45 43.90Q252.50 43.85 252.50 43.70Q252.50 43.85 252.25 43.10Q252.25 43.10 252.15 43Q252.30 42.70 252.45 42L252.45 41.35Q252.45 41.35 252.40 41.27Q252.35 41.20 252.35 41.05Q252.35 40.75 252.70 39.50Q252.90 39.45 253 39.10Q253.10 38.60 253.15 38.48Q253.20 38.35 253.43 38.13Q253.65 37.90 254.10 37.15Q254.75 36.35 254.75 36.30Q254.75 36.20 254.55 36.05Q254.35 35.90 254.45 35.70Q254.35 35.70 254.25 35.65L254.10 35.65Q254 35.65 253.75 35.73Q253.50 35.80 253.40 35.80Q253.15 35.50 252.85 35.25Q252.80 35.25 252.75 35.30L252.65 35.30Q252.60 35.30 252.43 35.15Q252.25 35 252.20 35Q252.10 35 252.15 35.05L252.10 35.05Q252.05 35.05 252 34.98Q251.95 34.90 251.85 34.85Q251.55 34.75 251.33 34.65Q251.10 34.55 251 34.50Q250.55 34.20 250.55 33.80Q250.80 33.90 251.28 34.08Q251.75 34.25 251.60 34.25L251.85 34.20Q251.90 34.25 251.90 34.40Q252.60 34.40 252.70 34.45Q253.30 34.75 253.25 34.75L253.35 34.75Q253.40 34.70 253.45 34.70Q253.65 34.70 254.55 35.05Q255.55 35.35 255.65 35.35Q255.60 35.35 256.05 35.15Q256.15 34.75 256.30 34.75Q256.35 34.75 256.35 34.80L256.40 34.80Q256.45 34.80 256.63 34.67Q256.80 34.55 256.90 34.55Q256.95 34.55 257.07 34.65Q257.20 34.75 257.25 34.75Q257.30 34.75 257.45 34.58Q257.60 34.40 257.85 34.40L257.95 34.20Q258.20 34.10 258.55 33.75L258.85 33.80Q259 33.65 258.90 33.60L259 33.60Q259.40 33.60 259.70 33.10L259.85 33.25Q260.05 33.25 260.27 33.13Q260.50 33 260.55 32.80Q260.60 32.85 260.75 32.85Q260.90 32.85 261.05 32.65L262.35 32.30L262.10 32.80Q261.95 32.85 261.73 32.95Q261.50 33.05 261.20 33.15Q261.15 33.70 260.20 33.65Q260.15 33.85 260.25 34Q260.15 34 259.95 34.05Q259.75 34.10 259.65 34.10Q259.60 34.20 259.55 34.33Q259.50 34.45 259.40 34.65Q259.30 34.65 259.20 34.75Q259 34.60 258.90 34.60Q258.85 34.65 258.85 34.85Q258.70 34.85 258.50 34.90Q258.45 35.15 257.60 35.65Q257.60 35.70 257.70 35.80Q258.50 35.90 259.25 36.05Q260 36.20 260.10 36.20Q260.20 36.20 260.25 36.15L260.40 36.15Q260.45 36.15 260.77 36.20Q261.10 36.25 261.25 36.25Q261.25 36.35 261.35 36.45Q261.75 36.40 262.15 36.40Q262.55 36.40 262.90 36.40Q263.30 36.40 263.68 36.40Q264.05 36.40 264.40 36.45Q265.95 36.55 266.15 36.60Q266.20 36.55 266.25 36.52Q266.30 36.50 266.35 36.50Q266.40 36.50 266.45 36.55Q266.50 36.60 266.60 36.60Q266.65 36.60 266.65 36.55Q266.65 36.50 266.75 36.50Q266.80 36.50 266.82 36.55Q266.85 36.60 266.90 36.60L267.40 36.60Q267.45 36.65 267.55 36.65L267.90 36.55Q268 36.55 268.10 36.60Q268.20 36.65 268.25 36.65Q268.35 36.65 268.75 36.63Q269.15 36.60 269.70 36.50Q269.65 36.55 270.25 36.55L270.80 36.45Q270.85 36.45 270.88 36.50Q270.90 36.55 271 36.55Q271 36.55 271.50 36.50Q272 36.45 272.25 36.45Q272.75 36.45 272.90 36.45Q273.05 36.45 272.95 36.50L275.20 36.25Q275.50 36.25 275.85 36.10L276.05 36.10Q276.20 36.10 276.35 36.10Q276.50 36.10 276.70 36.05Q276.65 36.10 276.75 36.10Q277.05 36.10 277.50 35.95Q277.90 35.85 278.95 35.80Q279.05 35.75 279.25 35.70Q279.45 35.65 279.65 35.60Q280.10 35.50 280.77 35.35Q281.45 35.20 282.40 35.10Q282.55 34.95 282.90 34.95Q282.95 34.90 282.95 34.80L283.70 34.80Q283.75 34.70 283.75 34.63Q283.75 34.55 283.75 34.55Q283.75 34.50 283.60 34.35Q283.45 34.20 283.45 34.15Q283.45 34.05 283.90 33.75L283.40 33.25Q283.40 33.15 283.45 33.10Q283.50 33.05 283.45 32.75L283.35 32.30Q283.35 31.85 282.80 31.45Q282.75 31.30 283.25 31.10L283.25 30.90Q282.60 30.60 282.60 30.65Q282.60 30.60 283.15 30.20L282.70 29.90Q282.65 29.65 282.63 29.55Q282.60 29.45 282.60 29.55Q282.60 29.25 282.77 29.02Q282.95 28.80 282.95 28.80Q282.95 28.65 282.50 28.50Q282.50 28.40 282.50 28.30Q282.50 28.20 282.55 28.05Q282.65 27.95 282.55 27.90Q282.50 27.85 282.50 27.75L282.50 27.10Q282.50 26.60 282.40 26.65Q282.40 26.70 282.40 26.70Q282.40 26.70 282.40 26.70Q282.40 26.70 282.40 26.65Q282.45 26.55 282.52 26.32Q282.60 26.10 282.60 26Q282.60 25.95 282.48 25.77Q282.35 25.60 282.35 25.50Q282.40 25.40 282.40 25.10Q282.15 25 282.15 24.50Q282.15 24.10 282.40 23.20L282.60 22.75Q282.55 22.60 282.52 22.60Q282.50 22.60 282.50 22.55L282.60 22.10L282.50 21.95L282.60 21.15L282.75 21.15L282.75 21.05Q282.75 21 282.63 20.82Q282.50 20.65 282.50 20.55Q282.50 20.50 282.63 20.38Q282.75 20.25 282.75 20.20Q282.90 19.65 282.85 19.40Q282.85 19.30 282.90 19.25Q283.05 18.70 282.90 18.50Q283.05 18.45 283.15 18.15Q283.25 17.80 283.45 17.35Q283.65 16.90 283.90 16.25Q283.85 16.20 283.85 16.05Q283.95 15.85 284.10 15.55Q284.25 15.25 284.35 14.85Q284.35 14.80 284.65 14.40Q284.95 14 284.95 13.75L285.30 13.45L285.50 13.55L285.70 13.30L285.70 12.95Q285.85 12.55 286.20 12.60Q286.20 12.35 286.70 12.07Q287.20 11.80 287.50 11.80L287.90 11.90Q287.95 11.90 288.10 11.80Q288.25 11.70 288.30 11.70Q288.35 11.70 288.57 11.80Q288.80 11.90 288.85 11.90Q288.90 11.90 288.90 11.85L288.95 11.85L289.65 12.15L290.80 13.40Q290.80 13.45 290.80 13.57Q290.80 13.70 290.85 13.85L291.20 14.25L291.40 14.65Q291.45 14.70 291.52 14.75Q291.60 14.80 291.65 14.90Q291.75 15.15 291.82 15.60Q291.90 16.05 292 16.60Q291.90 17.30 292 18.05Q292.10 18.50 292.30 18.85L292.15 19L292.10 19.65L292.10 19.85Q292.10 20.20 292.20 20.38Q292.30 20.55 292.40 20.65Q292.20 21 292.20 22.10Q292.20 22.10 292.20 22.13Q292.20 22.15 292.15 22.20Q292.25 22.55 292.15 22.95L291.95 23.35L292.05 23.90L291.65 24.90Q291.65 24.95 291.70 25L291.70 25.15Q291.70 25.25 291.55 25.80Q291.45 26.30 291.60 26.50Q291.15 27 291.30 27.25L291.10 28Q290.85 28.45 290.75 29.05Q290.70 29.15 290.65 29.27Q290.60 29.40 290.55 29.55Q290.55 29.55 290.45 30.25Q290.05 30.50 290.05 30.80Q289.60 31.25 289.55 31.95Q289.55 32.05 289.32 32.35Q289.10 32.65 289.10 32.70Q289.10 33.10 289.30 33.05L293.60 31.20Q293.60 31.20 293.90 31.30Q293.85 31.45 293.68 31.52Q293.50 31.60 293.35 31.85Q293.45 31.90 292.93 32.05Q292.40 32.20 292.15 32.45Q292.10 32.45 291.70 32.75L291.15 32.95Q291.05 33.15 290.70 33.35L289.45 33.55Q289.25 33.70 289.20 33.70Q289.15 33.70 289.13 33.65Q289.10 33.60 289.05 33.60Q289 33.60 288.90 33.70Q288.80 33.80 288.70 33.80L288.20 34.40L288.20 34.65Q288 34.85 287.75 35.50Q287.70 35.50 287.57 35.70Q287.45 35.90 287 36.55L286.70 36.75Q286.05 37.70 286 37.83Q285.95 37.95 285.80 38.10Q285.25 38.80 285.25 39.15Q285.25 39.20 285.38 39.52Q285.50 39.85 285.55 39.95Q285.60 40.25 285.70 40.65Q285.80 41.05 285.90 41.60Q286.15 42.40 286.80 43.85Q286.95 43.95 287.07 44.25Q287.20 44.55 287.60 45L288.05 45.95Q288.05 45.95 287.98 45.95Q287.90 45.95 287.75 45.90Q287.40 45.45 287.02 44.92Q286.65 44.40 286.25 43.75Q286.25 43.65 286.25 43.50Q286.25 43.35 286.20 43.15Q286.15 43.15 285.90 42.75L285.55 42.15Q285.50 42.20 285.52 42.10Q285.55 42 285.45 41.80L284.85 39.65Q284.85 39.65 284.82 39.65Q284.80 39.65 284.75 39.60L284.60 39.60Q284 40.15 283.45 40.75Q282.80 41.40 282.55 42.10L282.25 42.25Q282.25 42.15 281.95 42.50Q281.65 42.85 281.55 42.95Q281.20 43.15 280.90 43.60L280.75 43.60Q280.50 43.80 280.15 44.10Q279.80 44.40 279.30 44.80Q279.30 44.70 279.15 44.70Q279 44.70 278.80 44.90Q278.60 45.10 278.55 45.10L277.60 45.70Q277.30 45.90 276.90 46.50L276.80 46.35Q276.65 46.50 276.40 46.55Q276.40 46.55 276.30 46.75L275.40 47.15L274.95 47.25Q274.35 47.40 274.30 47.70Q274.15 47.75 274.05 47.75L273.95 47.75Q273.95 47.70 273.90 47.70Q273.75 47.70 273.35 48.05Q273.10 48.15 272.80 48.35L272.85 48.35Q272.85 48.45 272.30 48.60Q271.90 48.70 271.30 49.05Q271.30 49.05 271.05 49.10Q270.80 49.15 270.30 49.25L269.85 49.25L269.25 49.55Q269.15 49.55 269.02 49.55Q268.90 49.55 268.70 49.60Q268.65 49.60 268.75 49.65Q268.80 49.70 268.75 49.70L268.45 49.70Q268.25 49.65 268.10 49.65Q268.05 49.65 267.68 49.80Q267.30 49.95 267.10 50Q266.10 50.10 265.38 50.17Q264.65 50.25 264.15 50.25M284.40 34.60L284.70 34.60Q284.80 34.60 285.02 34.55Q285.25 34.50 285.30 34.50Q285.55 34.20 285.60 34.20L285.75 34.20Q285.80 34.25 285.90 34.25Q286.15 34.25 286.38 34.08Q286.60 33.90 286.75 33.90L286.85 33.90Q286.90 33.95 286.95 33.95Q287 33.95 287.20 33.80Q287.90 33.60 288.40 32.85L288.40 32.45L288.75 31.80Q288.75 31.70 288.77 31.55Q288.80 31.40 288.85 31.20Q288.85 31.10 289.02 30.80Q289.20 30.50 289.35 29.65L289.50 29.50L289.75 28.60Q290 28.45 290.20 27.65Q290.30 27.40 290.65 26.90Q290.60 26.75 290.60 26.63Q290.60 26.50 290.60 26.45Q290.60 26.15 290.77 25.72Q290.95 25.30 290.95 25.40Q290.90 25.20 290.88 25.05Q290.85 24.90 290.90 24.70Q290.95 24.55 291 24.25Q291.05 23.95 291.10 23.20Q291.10 23.20 291.20 23.10L291.20 22.75L291.30 22.05Q291.30 22.05 291.30 22.02Q291.30 22 291.30 22Q291.25 22 291.25 21.95Q291.25 21.95 291.30 22Q291.35 22.05 291.35 21.85L291.20 21.75Q291.25 21.75 291.35 21.65Q291.30 21.65 291.20 21.35Q291.25 21.25 291.30 21.13Q291.35 21 291.40 20.80L291.40 20.35Q291.40 19.95 291.45 19.67Q291.50 19.40 291.45 19.35Q291.30 18.85 291.30 18.90L291.30 18.90L291.30 18.95Q291.30 18.95 291.30 18.95Q291.30 18.95 291.30 18.90Q291.30 18.90 291.30 18.90Q291.30 18.80 291.35 18.67Q291.40 18.55 291.40 18.55L291.40 18.25Q291.40 18.05 291.38 17.88Q291.35 17.70 291.30 17.50Q291.15 17.35 291.10 16.65Q291.20 16.50 291.15 16.45L290.90 15.75Q290.90 15.60 290.80 15.38Q290.70 15.15 290.30 14.75Q290.05 14.50 289.90 14.38Q289.75 14.25 289.75 14.25Q289.70 14.25 289.63 14.32Q289.55 14.40 289.50 14.40Q289.40 14.40 289.25 14.35L289 14.35Q288.70 14.35 287.90 14.85Q287.90 14.85 287.85 14.90Q287.80 14.95 287.70 15L287.10 15.60Q287.10 15.75 286.80 16.05Q286.60 16.25 286.40 16.60Q286.20 16.95 285.95 17.45Q285 20.10 285 20.20Q284.80 20.95 284.68 21.63Q284.55 22.30 284.50 22.90L284.20 24.20Q284.10 25.05 284.05 25.93Q284 26.80 284 27.65L284.05 27.70L284.05 29.55Q284.05 30.40 284.13 31.65Q284.20 32.90 284.40 34.60M285 37.75Q285.25 37.65 285.48 37.38Q285.70 37.10 285.65 36.95L287.15 34.85L287.15 34.55Q287.05 34.60 286.98 34.60Q286.90 34.60 286.90 34.60Q286.85 34.60 286.75 34.52Q286.65 34.45 286.60 34.45Q286.60 34.75 286.65 34.80L286.15 35.05Q286.15 35.25 285.90 35.25Q285.85 35.25 285.80 35.20Q285.75 35.15 285.75 35.15L285.20 35.30Q285.20 35.40 285.10 35.40L285.05 35.40Q285.05 35.35 284.95 35.35Q285.05 35.35 284.70 35.55L284.70 36.90Q284.70 37.50 285 37.75M263.30 48.50L263.95 48.40L264.50 48.50Q264.50 48.50 264.70 48.35L267.05 48.15Q267.40 48.10 267.82 47.92Q268.25 47.75 268.75 47.50Q268.85 47.60 269 47.60Q269.35 47.60 269.52 47.42Q269.70 47.25 270.15 47.20L270.75 47.10Q271 47 271.27 46.90Q271.55 46.80 271.80 46.75Q271.90 46.65 272.07 46.55Q272.25 46.45 272.45 46.35Q272.70 46.35 272.85 46.30Q272.90 46.30 273.20 46.08Q273.50 45.85 274.15 45.50L274.75 45.20Q275.05 45.05 275.45 44.85Q275.85 44.65 276.35 44.35Q276.75 44.10 276.65 44.10L276.85 44.15Q276.85 44 277.10 43.90Q277.10 43.85 277.20 43.75Q277.30 43.85 277.40 43.85L277.80 43.45Q277.90 43.45 278.05 43.35Q278.20 43.25 278.30 43.25L278.35 43.25Q278.40 43.30 278.45 43.30Q278.55 43.30 279.45 42.55Q279.45 42.55 279.55 42.65L279.55 42.85Q279.55 42.90 279.50 42.95L279 43.10Q279.05 43.25 279 43.30Q278.85 43.25 278.60 43.52Q278.35 43.80 278.35 43.95L277.40 44.40Q276.75 44.85 276.75 44.85Q276.70 44.85 276.70 44.80L276.65 44.80Q276.55 44.80 276.40 44.98Q276.25 45.15 275.65 45.55Q275.55 45.55 275.40 45.63Q275.25 45.70 274.75 46.10L274.75 46.25L275.15 46.25Q275.30 45.95 275.40 45.95Q275.50 45.95 275.50 46L275.55 46Q275.70 46 275.75 45.88Q275.80 45.75 276.35 45.55Q276.35 45.40 276.40 45.35Q276.50 45.30 276.68 45.30Q276.85 45.30 277.05 45.25L277.35 44.95Q277.45 44.90 277.57 44.83Q277.70 44.75 278 44.55Q278.10 44.50 278.27 44.40Q278.45 44.30 278.75 44Q279.10 43.80 279.52 43.52Q279.95 43.25 280.50 42.90Q280.60 42.70 280.80 42.50Q281.25 42.45 281.40 42.25Q281.55 42.05 281.85 41.65Q282.30 40.95 282.30 40.90Q283 40.65 283.20 40.05Q283.60 39.95 283.80 39.45Q284.60 38.80 284.60 38.35Q284.60 37.95 284.40 37.50Q284.30 37.30 284.13 37.13Q283.95 36.95 283.95 36.75Q283.95 36.65 284.05 36.52Q284.15 36.40 284.15 36.20Q284.15 35.75 283.85 35.75Q283.80 35.75 283.63 35.83Q283.45 35.90 283.35 35.90Q283.30 35.90 283.27 35.83Q283.25 35.75 283.15 35.75Q283.10 35.80 281.40 36.10Q281.50 36.15 281.40 36.25Q281.35 36.20 281.25 36.20Q281.15 36.20 280.88 36.33Q280.60 36.45 280.50 36.45Q280.20 36.45 279.95 36.25Q279.85 36.30 279.50 36.65Q279.35 36.50 279.30 36.50Q279.20 36.50 279.07 36.55Q278.95 36.60 278.90 36.60Q278.40 36.70 278.30 36.75Q278.20 36.80 278.10 36.80L278 36.80Q277.95 36.75 277.85 36.75Q277.80 36.75 277.70 36.83Q277.60 36.90 277.55 36.90L277.40 36.90Q277.35 36.85 277.25 36.85Q277.20 36.85 277.05 36.92Q276.90 37 276.85 37L276.50 36.90Q276.20 36.90 276.18 37.08Q276.15 37.25 275.90 37.25Q275.80 37.25 275.82 37.20Q275.85 37.15 275.80 37.15Q275.55 37.15 275.45 37.45Q274.95 37.05 274.80 37.05Q274.65 37.05 274.38 37.17Q274.10 37.30 274 37.45Q273.80 37.35 273.60 37.15L273.35 37.15L273.20 37.45Q272.85 37.30 272.65 37.30Q272.60 37.30 272.45 37.38Q272.30 37.45 272.25 37.45Q272.15 37.45 272.13 37.35Q272.10 37.25 272.05 37.25Q271.95 37.25 271.65 37.60L270.70 37.40Q270.70 37.55 270.65 37.60L270.50 37.60L269.20 37.40Q269.15 37.40 269.07 37.48Q269 37.55 268.95 37.55Q268.60 37.70 268.40 37.70Q268.30 37.70 268.25 37.65L268.10 37.65Q267.80 37.65 267.65 37.80Q267.60 37.75 267.15 37.75Q267.20 37.75 266.60 37.55Q266.45 37.85 266.30 37.85Q265.80 37.85 265.85 37.77Q265.90 37.70 265.70 37.65Q265.50 37.95 265.35 37.95L264.50 37.70L264.40 37.70Q264.40 37.75 264.30 37.75Q264.25 37.75 264.20 37.70Q264.15 37.65 264.05 37.65Q264 37.65 263.82 37.75Q263.65 37.85 263.60 37.85Q263.55 37.85 263.48 37.77Q263.40 37.70 263.20 37.70Q263.10 37.70 262.90 37.80Q262.95 37.75 262.60 37.75Q262.60 37.60 262.55 37.55Q262.45 37.55 262.35 37.60Q262.25 37.65 262.20 37.65Q262.15 37.65 262.02 37.58Q261.90 37.50 261.85 37.50Q261.80 37.50 261.57 37.63Q261.35 37.75 261.30 37.75Q261.20 37.75 261.18 37.67Q261.15 37.60 261.10 37.60L261.05 37.60Q261.05 37.65 261 37.65Q261 37.65 260.90 37.50Q260.65 37.50 260.20 37.35Q259.75 37.20 260 37.20Q259.95 37.20 259.52 37.30Q259.10 37.40 259 37.40Q258.95 37.40 258.85 37.27Q258.75 37.15 258.70 37.15Q258.65 37.15 258.65 37.20L258.60 37.20Q258.55 37.20 258.38 37.08Q258.20 36.95 258.15 36.95Q258.10 36.95 258.05 37L258 37L256.60 36.70Q256.45 36.70 255.85 37.35Q255.70 37.45 255.50 37.65Q255.30 37.85 255.05 38.10Q254.50 38.80 254.45 39.10L254.30 39.25Q253.95 39.60 253.80 39.65L253.80 40Q253.50 40.50 253.50 40.70Q253.50 41 253.55 40.95Q253.60 40.90 253.60 40.90Q253.60 40.95 253.55 40.95Q253.40 41.25 253.40 41.35L253.15 42.75Q253.15 42.90 253.60 44.20Q253.95 44.20 254.15 44.95L254.20 44.95Q254.45 44.95 254.75 45.65L254.95 45.60Q255.05 45.60 255 45.65Q255.40 46.35 255.80 46.50Q256 46.55 256.40 46.77Q256.80 47 257.35 47.40Q257.65 47.45 258 47.63Q258.35 47.80 258.75 47.90Q258.85 47.85 258.90 47.85Q258.95 47.90 259.25 48.05Q259.55 48.20 259.75 48.20Q259.80 48.20 259.85 48.15Q259.90 48.10 259.95 48.10Q260 48.10 260.50 48.20Q261 48.30 261.25 48.30Q261.25 48.30 261.32 48.38Q261.40 48.45 261.65 48.45Q261.70 48.45 261.80 48.45Q261.90 48.45 262.10 48.40L262.80 48.40L263.30 48.50ZM306.35 46.50Q306.30 46.50 306.25 46.45Q306.20 46.40 306.15 46.40Q306.10 46.40 305.73 46.20Q305.35 46 305.30 46Q305.20 46.05 305.15 46.05Q305.25 45.90 305.10 45.90Q305 45.90 304.95 45.95L304.85 45.95Q304.95 45.95 304.20 45.60L304.10 45.45L303.35 45Q303.30 44.95 303.30 44.85Q302.95 44.70 302.40 44Q301.95 43.75 301.85 43.15Q301.70 43.10 301.50 42.80L301.50 42.70Q301.55 42.70 301.55 42.65Q301.50 42.65 301.48 42.55Q301.45 42.45 301.25 42.05L301.05 41.80L300.95 41.75Q301 41.70 301 41.63Q301 41.55 301.05 41.50Q301.05 41.45 300.85 41.45L300.70 39.80Q300.70 39.75 300.35 39.75Q300.35 39.60 300.25 39.60Q300.20 39.60 300.20 39.65L300.15 39.65Q300.10 39.65 299.80 39.52Q299.50 39.40 299.35 39.40L299.30 39.45Q299.40 39.55 299.55 39.55Q299.55 39.60 299.65 39.70Q299.60 39.85 299.40 39.85Q299.35 39.85 299.25 39.77Q299.15 39.70 299.10 39.70Q299.05 39.70 299.05 39.80L298.95 39.65Q298.35 39.40 297.35 38.80Q296.85 38.45 296.80 38.45Q296.75 38.45 296.70 38.50Q296.70 38.40 296.35 38Q296 37.60 296 37.45Q296 37.10 296.20 36.75Q296.45 36.70 296.43 36.67Q296.40 36.65 296.50 36.65L296.60 36.65Q296.65 36.70 296.70 36.70Q296.75 36.70 296.85 36.60L296.95 36.75L297.05 36.65Q297.10 36.70 297.35 37Q297.60 37.30 297.70 37.30Q297.55 37.30 298.95 38.20L300.25 38.85L300.40 39Q300.45 39 300.45 38.95Q300.45 38.90 300.50 38.90L300.65 39.05Q300.70 38.80 300.80 38.45Q300.90 38.10 301 37.60Q301.20 38.20 301.15 38.55L301.25 38.90L301.25 39.25Q301.30 39.45 301.40 39.45Q301.45 39.45 301.45 39.40L301.50 39.40Q301.50 39.40 301.75 39.50Q302 39.60 302.05 39.65Q302.15 39.70 302.33 39.77Q302.50 39.85 302.90 39.95L303.50 40.25Q303.45 40.30 303.50 40.35Q303.55 40.30 303.75 40.30Q303.90 40.30 305.50 40.95Q305.75 41.05 305.73 41.10Q305.70 41.15 305.80 41.15L305.85 41.15Q305.85 41.10 305.90 41.10L306.30 41.20L306.40 41.30Q306.50 41.30 306.63 41.30Q306.75 41.30 306.95 41.35Q307.15 41.55 307.25 41.55Q307.30 41.55 307.30 41.50Q307.25 41.45 307.30 41.45Q307.35 41.45 307.55 41.58Q307.75 41.70 307.80 41.70Q307.85 41.70 307.85 41.65Q307.85 41.60 307.95 41.60Q308 41.60 308.08 41.70Q308.15 41.80 308.20 41.80Q308.50 41.80 308.90 41.95Q309.30 42.10 309.30 42.10Q309.40 42.10 309.50 42Q309.50 42.20 310.05 42.20L310.15 42.20Q310.15 42.15 310.20 42.15Q310.25 42.15 310.30 42.25Q310.35 42.35 310.40 42.35Q310.55 42.35 310.70 42.15Q310.65 42.35 310.95 42.35L311.15 42.35Q311.35 42.35 311.50 41.95Q311.75 41.75 312.08 41.27Q312.40 40.80 312.85 40.10L313.30 39.60Q313.40 39.30 313.70 39Q313.80 38.90 313.70 38.85Q314.05 38.60 314.15 38.33Q314.25 38.05 314.55 37.50L314.55 37.75Q314.80 37.65 314.70 37.45L314.85 37.55Q314.85 37.70 314.75 38Q314.35 38.65 314.25 38.55Q314.20 38.65 314.20 39Q314.10 39.10 313.95 39.25Q313.80 39.40 313.85 39.55Q313.65 39.75 313.58 39.92Q313.50 40.10 312.90 41Q312.65 41.20 312.35 41.60Q312.35 41.65 312.40 41.70L313.30 40.85L313.30 40.75Q313.30 40.65 313.33 40.58Q313.35 40.50 313.40 40.35Q313.80 40.15 314.05 39.75Q314.30 39.35 314.50 38.95Q314.70 38.75 315 38.15L315.20 38.05L315.20 37.85Q315.35 37.85 315.40 37.25Q315.40 37.15 315.70 36.65Q315.70 36.65 315.90 36.55Q315.90 36.45 315.95 36.35Q315.85 36.10 316 35.75L316.10 35.90L316.45 35.40Q316.35 35.30 316.25 35.30Q316.10 35.30 316.10 35.35L315.85 34.85Q315.90 34.85 316.25 34.50Q316.25 34.40 316.35 34.20Q316.30 33.95 316.35 33.90Q316.45 33.85 316.53 33.75Q316.60 33.65 316.70 33.55Q316.95 33 317.28 32.25Q317.60 31.50 318.10 30.55Q318.15 30.55 318.25 30.45Q318.35 30.05 318.43 29.88Q318.50 29.70 318.50 29.70Q318.55 29.75 318.60 29.75Q318.70 29.45 318.93 29.02Q319.15 28.60 319.40 28.05Q319.40 28.05 319.60 28.15Q319.60 28.20 319.60 28.32Q319.60 28.45 319.55 28.60L319.60 28.70Q319.65 28.65 319.65 28.55Q319.65 28.45 319.70 28.35Q320.05 28.30 320.10 27.80Q320.10 27.85 320.15 27.85L320.15 27.40Q320.35 27.40 320.40 27.20L319.95 27.10L319.95 26.75Q319.95 26.70 319.98 26.68Q320 26.65 320.05 26.45Q320.05 26.40 320 26.35Q320.05 26.30 320.10 26.35Q320.25 26.25 320.40 25.90Q320.40 25.90 320.65 25.50Q320.65 25.40 320.78 25.18Q320.90 24.95 321.15 24.25Q321.45 23.85 321.60 23.45L321.75 23.30L321.85 22.90L322.45 22.05Q322.55 21.95 322.45 21.90Q323 21.60 323.10 20.85Q323.20 20.75 323.30 20.65Q323.40 20.55 323.40 20.30Q323.45 20.30 323.50 20.35Q323.65 20.15 323.80 19.95Q323.95 19.75 324.05 19.55Q323.90 19.40 323.85 19.40Q323.75 19.40 323.70 19.45L323.55 19.45Q323.45 19.45 323.50 19.40Q323.55 19.35 323.50 19.35Q323.40 19.35 323.30 19.40L323.10 19.40Q323.05 19.40 323.05 19.35L322.80 19.35Q322.70 19.35 322.65 19.27Q322.60 19.20 322.55 19.20L322.50 19.20Q322.50 19.25 322.45 19.25Q322.50 19.25 322.15 19.05L322.05 19.15L321.20 18.90L321.15 18.90Q321.10 18.95 321.05 18.95Q321 18.95 320.60 18.80Q320.20 18.65 320.15 18.65Q320.10 18.65 320.10 18.70L320.05 18.70Q319.85 18.55 319.88 18.52Q319.90 18.50 319.60 18.42Q319.30 18.35 318.10 18.15Q317.90 18.20 317.80 18.15Q317.65 18.10 317.43 18.02Q317.20 17.95 316.80 17.90L316.75 17.85Q316.65 17.75 316.40 17.85L316.30 17.80Q316.25 17.80 316.25 17.75L316.15 17.75Q316.10 17.75 316.15 17.80L316.10 17.80Q316.15 17.80 315.85 17.72Q315.55 17.65 315.28 17.60Q315 17.55 315.05 17.55Q314.90 17.45 314.80 17.55Q314.60 17.45 314.60 17.45Q314.55 17.45 314.53 17.50Q314.50 17.55 314.45 17.55Q314.50 17.55 314.33 17.42Q314.15 17.30 313.80 17.30Q313.75 17.30 313.75 17.35Q313.75 17.40 313.65 17.40Q313.60 17.40 313.60 17.35Q313.60 17.30 313.55 17.30Q313.50 17.30 313.48 17.35Q313.45 17.40 313.40 17.40Q313.35 17.40 313.35 17.35Q313.40 17.30 313.35 17.30Q313.25 17.30 313.25 17.35L312.70 17.10L312.60 17.20Q312.60 17.20 312.45 17.05L312.35 17.15Q312.25 17.05 312.20 17.10L312.10 17.05Q311.95 16.95 311.58 16.88Q311.20 16.80 311.15 16.80Q311.15 16.80 310.95 16.95Q310.90 16.75 310.70 16.75Q310.65 16.75 310.65 16.80L310.60 16.80Q310.70 16.80 310.50 16.70L310.45 16.75L309.40 16.50Q309.20 16.50 308.95 16.47Q308.70 16.45 308.35 16.40Q308.45 16.30 308.35 16.30Q308.25 16.30 308.20 16.35L308.05 16.35Q308 16.35 308 16.30L307.95 16.30L307.80 16.40L307.70 16.30Q307.65 16.30 307.60 16.35Q307.55 16.40 307.50 16.40L306.80 16.20Q306.70 16.20 306.65 16.25L306.25 16.25Q306.15 16.25 305.78 16.20Q305.40 16.15 305.35 16.15Q305.30 16.15 305.30 16.20Q305.35 16.25 305.30 16.25Q305.25 16.25 305.10 16.17Q304.95 16.10 304.80 16.10L304.65 16.10Q304.55 16.15 304.45 16.15Q304.60 16.15 304.20 15.90Q304.10 16 304.10 16.15L303.90 16.05L303.60 16.05Q303.45 16 303.35 16Q303.30 16 303.30 16.05Q303.30 16.10 303.20 16.10Q303.15 16.10 303.03 16Q302.90 15.90 302.85 15.90Q302.80 15.90 302.78 15.97Q302.75 16.05 302.65 16L302.10 15.90Q302.05 15.90 302.10 15.95Q302.10 16 302.05 16Q302 16 302 15.95Q302 15.90 301.90 15.90Q301.95 15.95 301.55 16.05L301.25 16.05Q301.15 16.05 301.10 16.10L300.75 16.10Q300.60 16.05 300.35 16.05Q300.35 16.05 300.25 16.10Q300.15 16.15 300.10 16.15L299.95 16L299.90 16.10Q299.90 16 299.80 16Q299.75 16 299.63 16.10Q299.50 16.20 299.45 16.20Q299.40 16.20 299.35 16.15Q299.30 16.10 299.25 16.10L297.50 16.40Q297.45 16.40 297.45 16.45Q297.45 16.50 297.40 16.50Q297.35 16.50 297.30 16.42Q297.25 16.35 297.20 16.35Q297.15 16.35 297 16.45Q296.85 16.55 296.80 16.55Q296.25 16.55 296.10 16.60Q295.75 16.95 295.45 16.95Q295.40 16.95 295.35 16.90L295.25 16.90Q295.20 16.90 295.05 17Q294.90 17.10 294.50 17.60L294.20 17.95Q293.85 18.20 293.50 18.70Q293.50 18.80 293.45 18.85Q293.50 18.95 293.50 19.15Q293.50 19.45 293.30 19.60Q293.30 19.65 293.35 19.65Q293.25 20.05 293.40 20.25Q293.35 20.20 293.35 20.35Q293.35 20.85 293.50 21.30Q293.50 21.35 293.73 21.72Q293.95 22.10 294.05 22.10L294.05 22.35Q294.05 22.40 294.13 22.50Q294.20 22.60 294.20 22.60L294.20 22.90Q294.30 22.90 294.35 22.95L294.35 23.10L294.80 23.65Q294.80 23.75 295 23.95Q295.35 24.45 295.40 24.45L295.50 24.40L295.50 24.55Q295.55 24.70 295.75 24.90Q296.20 25.35 296.80 25.75Q296.80 25.80 296.75 25.85L296.90 26.05Q297.30 26.80 297.75 26.75Q297.80 26.80 297.75 26.95Q298 27.15 298.43 27.50Q298.85 27.85 299.40 28.25Q299.60 28.25 299.70 28.30Q299.85 28.50 299.95 28.50Q300.35 29.10 300.70 29.10Q300.75 29.20 301.45 29.45Q301.55 29.50 301.90 29.75Q302.25 30 302.45 30Q302.50 29.95 302.55 29.95L302.55 30.05Q302.55 30.35 302.80 30.25Q303.05 30.15 303.10 30.45Q303.20 30.35 303.20 30.30Q303.30 30.50 303.45 30.65Q303.90 30.80 303.85 30.80L303.50 30.90Q303.45 30.75 303.20 30.75Q303.15 30.75 303.05 30.75Q302.95 30.75 302.85 30.80Q302.85 30.80 302.70 30.73Q302.55 30.65 302.30 30.45Q302.20 30.35 302 30.30L301.90 30.35L301.95 30.30Q301.75 30.10 301.65 30.10Q301.70 30.10 301.55 30.20Q301.50 30.05 300.65 29.70Q300.65 29.60 300.50 29.45Q300.15 29.25 299.95 29.25Q299.90 29.25 299.95 29.30L299.90 29.30Q299.80 29.30 299.10 28.80Q298.40 28.30 298.30 28.30Q298.20 28.30 298.20 28.40Q298.20 28.40 298.08 28.25Q297.95 28.10 297.95 28Q297.85 28 297.60 27.70L297.50 27.80L297.35 27.60Q297.25 27.20 296.95 27.35L296.85 27Q296.75 27.10 296.65 27.10L296.50 26.95L296.40 26.95Q296.20 26.95 295.95 26.68Q295.70 26.40 295.55 26.10L295.20 25.85L295.20 25.75Q295.20 25.60 295 25.40Q294.60 25.15 294.58 25.10Q294.55 25.05 294.40 24.85Q294.40 24.80 294.45 24.75Q294.45 24.70 294.35 24.50Q294.35 24.45 294.15 24.30Q294.15 24.30 294.10 24.17Q294.05 24.05 294.05 23.95Q293.85 23.90 293.55 23.20Q293.45 23.10 293.40 23.15Q293.45 23 293.40 22.80Q293.35 22.75 293.30 22.67Q293.25 22.60 293.05 22.05Q293 21.85 292.93 21.45Q292.85 21.05 292.85 21.15Q292.85 21.10 292.90 20.95Q292.95 20.80 293 20.70Q293.05 20.35 293 20.20Q292.95 20.05 292.95 19.90Q293 19.85 293.55 18.30Q293.75 17.65 294.20 17.20Q294.65 17 295.30 16.30Q295.30 16.30 295.30 16.30Q295.35 16.30 295.55 16.25Q295.70 16.20 296.03 16Q296.35 15.80 296.50 15.85Q296.50 15.65 296.55 15.60Q297.65 15.05 297.75 15.05L297.80 15.05Q297.80 15.10 297.90 15.10Q297.90 15.10 298.08 14.97Q298.25 14.85 298.30 14.85Q298.35 14.85 298.40 14.90L298.45 14.90Q298.60 14.90 298.60 14.75Q298.55 14.75 298.55 14.70Q298.55 14.70 298.70 14.67Q298.85 14.65 299.15 14.60L299.95 14.45Q300.35 14.45 300.50 14.30Q300.60 14.40 300.65 14.40Q300.95 14.40 300.90 14.35L301 14.25Q301.70 14.15 302.35 14.25L302.45 14.35L302.55 14.20L303.15 14.20Q303.10 14.20 303.25 14.35L303.35 14.35Q303.45 14.35 303.55 14.27Q303.65 14.20 303.70 14.20Q303.75 14.20 303.93 14.30Q304.10 14.40 304.15 14.40Q304.25 14.40 304.25 14.35Q304.25 14.30 304.30 14.30L304.35 14.30Q304.30 14.35 304.35 14.35Q304.40 14.35 304.45 14.27Q304.50 14.20 304.55 14.20Q304.65 14.20 304.85 14.30Q305.05 14.40 305.15 14.40Q305.30 14.40 305.30 14.25L305.50 14.30Q305.60 14.30 305.60 14.20Q305.85 14.50 306.40 14.50Q306.80 14.50 307.05 14.50Q307.30 14.50 307.45 14.55Q308.90 14.85 309 14.85Q309.10 14.85 309.05 14.80Q310.10 15.20 310.40 15.20Q310.45 15.20 310.45 15.15L310.55 15.15L311.10 15.25L311.30 15.25Q311.30 15.50 311.35 15.55L311.40 15.45Q311.70 15.55 311.90 15.65Q312.05 15.65 312 15.70Q312 15.70 312 15.70Q312 15.70 311.90 15.65L311.85 15.65Q311.80 15.65 311.78 15.70Q311.75 15.75 311.70 15.75Q311.65 15.75 311.55 15.65Q311.45 15.55 311.40 15.55L310.85 15.65Q310.75 15.65 310.80 15.65L310.85 15.65Q310.90 15.60 310.55 15.55Q310.40 15.50 309.85 15.50Q309.80 15.50 309.73 15.57Q309.65 15.65 309.60 15.65Q309.30 15.65 309.25 15.60L309.20 15.70L309.35 15.85L309.50 15.70Q309.60 15.80 309.65 15.80Q309.75 15.80 309.70 15.75Q309.85 15.90 310.30 15.90L310.50 15.90Q310.45 15.95 310.50 16Q310.55 15.95 310.75 15.95Q310.70 15.95 310.88 16.02Q311.05 16.10 311.45 16.20Q311.85 16.35 312.15 16.35Q313.35 16.35 313.50 16.70L313.60 16.65Q313.80 16.75 314 16.70Q314.25 16.80 314.35 16.85Q314.45 16.90 314.45 16.90L315.30 16.90L315.70 17.10Q315.95 17.20 316.13 17.22Q316.30 17.25 316.45 17.25Q316.50 17.25 316.55 17.30Q316.60 17.35 316.65 17.35Q316.70 17.35 316.70 17.30Q316.70 17.25 316.75 17.25L317.40 17.45L317.65 17.45Q317.70 17.45 317.73 17.52Q317.75 17.60 317.85 17.55L318.05 17.50Q318.05 17.55 318.20 17.65L318.30 17.55Q318.80 17.80 318.85 17.80Q319.30 17.80 319.50 17.92Q319.70 18.05 319.65 18.05Q319.75 18.05 319.80 18L319.95 18Q320.05 18 320.23 18.10Q320.40 18.20 320.50 18.20Q320.55 18.20 320.50 18.15Q320.45 18.10 320.50 18.10Q320.55 18.10 320.65 18.15Q320.75 18.20 320.80 18.20Q321.05 18.20 321.18 18.30Q321.30 18.40 321.50 18.40L321.60 18.40Q321.60 18.35 321.65 18.35Q321.70 18.35 321.83 18.45Q321.95 18.55 322 18.55L322.45 18.55Q323.20 18.80 323.20 18.80L323.20 18.95Q323.25 19 323.30 19Q323.30 19 323.35 19Q323.40 19 323.45 18.95L323.75 18.95L324.25 19.05Q324.30 19.10 324.58 18.70Q324.85 18.30 325.10 17.80L325.10 17.70L325.20 17.70Q325.35 17.60 325.75 16.95Q325.80 16.90 325.88 16.82Q325.95 16.75 326.05 16.55Q326.45 16.50 326.60 16.10Q326.75 15.70 326.90 15.40Q326.90 15.40 326.90 15.42Q326.90 15.45 326.95 15.50Q327.15 15.35 327.20 15.30Q327.15 15.25 327.20 15.25Q327.25 15.25 327.20 15.30Q327.25 15.35 327.30 15.35Q327.40 14.85 327.95 14.45Q328.50 14.05 328.60 13.90Q328.70 13.80 328.75 13.75Q328.80 13.70 328.85 13.65Q328.95 13.55 329.25 13.32Q329.55 13.10 329.70 13.05Q329.80 13.10 330.03 13.22Q330.25 13.35 330.35 13.50Q330.30 13.55 330.30 13.75Q330.40 13.85 330.45 14.10Q330.20 14.35 329.30 14.95L328.50 15.85Q328.45 15.80 328.35 15.80L328.35 15.60Q328.30 15.55 328.55 15.30Q328.55 15.25 328.50 15.20Q328 15.45 328.15 15.45Q328.10 15.45 328 15.35Q327.65 15.75 327.38 16.15Q327.10 16.55 326.90 16.90Q326.80 16.90 326.75 16.95Q326.70 17.05 326.58 17.27Q326.45 17.50 326.25 17.75L326.15 18.10Q325.85 18.45 325.40 19.30Q325.65 19.45 325.70 19.45Q326 19.45 326.13 19.52Q326.25 19.60 326.35 19.60Q326.70 19.60 326.88 19.67Q327.05 19.75 327.20 19.70Q327.25 19.90 327.45 19.90Q327.60 19.90 327.65 19.85L328.20 20Q328.30 20.05 328.45 20.10Q328.60 20.15 328.80 20.20Q329.05 20.20 329.20 20.25Q329.60 20.40 329.55 20.40Q329.55 20.40 329.60 20.35L329.70 20.45Q330.05 20.45 330 20.40Q330.05 20.40 330.25 20.50L330.40 20.50Q330.40 20.45 330.45 20.45L330.80 20.60L330.95 20.60L331.30 20.70L331.70 20.70Q331.90 20.65 332.05 20.65Q332.10 20.65 332.10 20.70Q332.05 20.75 332.10 20.75Q332.50 20.75 332.60 20.70L332.70 20.80Q332.80 20.70 332.85 20.70Q332.90 20.70 332.93 20.75Q332.95 20.80 333 20.80Q333.05 20.80 333.05 20.75Q333 20.70 333.05 20.70L333.15 20.70Q333.20 20.75 333.25 20.75L333.40 20.75L333.75 20.85Q333.80 20.80 333.75 20.75Q333.85 20.80 333.93 20.82Q334 20.85 334.50 20.85Q334.55 20.85 334.80 20.72Q335.05 20.60 335.10 20.60Q335.15 20.60 335.15 20.65L335.20 20.65L335.55 20.55Q335.70 20.55 335.85 20.50Q336.45 20.35 336.45 20.25L336.45 20.30Q336.50 20.30 336.85 20.07Q337.20 19.85 337.50 19.55Q337.50 19.55 337.58 19.47Q337.65 19.40 337.85 19.30L337.95 18.85Q338.10 18.85 338.10 18.95L338.10 18.85Q338.10 18.65 338.25 18.35L338.45 18.75Q338.50 18.80 338.50 19.05Q338.50 19.40 338.45 19.35Q338.20 19.75 338.20 20.25Q338.15 20.25 338.10 20.20Q337.95 20.45 337.68 20.65Q337.40 20.85 337.35 20.85L337.25 20.85Q337.10 20.85 337.10 21Q336.40 21 336.30 21.30L336.15 21.20L336.15 21.25Q336.05 21.20 335.90 21.20Q335.80 21.20 335.70 21.30Q335.75 21.25 335.65 21.25L335.35 21.25Q335.15 21.40 334.95 21.40Q334.90 21.40 334.78 21.35Q334.65 21.30 334.20 21.30Q334.25 21.30 334 21.45L333.85 21.45Q333.60 21.25 333.60 21.25Q333.40 21.25 333.15 21.40L333.05 21.30L332.95 21.45L332.85 21.35Q332.50 21.30 332.13 21.25Q331.75 21.20 331.35 21.15Q331.25 21.25 331.25 21.25L331.20 21.20L331.05 21.30Q331.05 21.25 331.10 21.20Q330.50 20.90 330 20.90Q329.90 20.90 329.90 20.95Q329.90 21 329.90 21L329.85 21Q329.85 21 329.90 20.95Q329.75 20.85 329.05 20.75Q329 20.70 328.85 20.70Q328.70 20.70 328.50 20.65Q328.50 20.55 328.45 20.50L328.35 20.60L327.60 20.45Q327.50 20.35 327.45 20.35L327.40 20.35Q327.40 20.40 327.35 20.40Q327.20 20.40 327.15 20.20Q327.10 20.20 327.03 20.25Q326.95 20.30 326.90 20.30Q326.85 20.30 326.70 20.22Q326.55 20.15 326.50 20.15Q326.45 20.15 326.40 20.20L326.35 20.20Q326.30 20.20 326.20 20.05L326.10 20.10L325.90 19.95L325.80 19.95Q325.80 20 325.75 20Q325.60 19.85 325.10 19.85Q325.05 19.85 324.35 21.35Q323.85 22.40 323.85 22.40L323.25 23.50Q323.15 23.60 323.25 23.75Q323.05 23.85 323 24.25L322.85 24.40L322.50 25.30Q322.50 25.30 322.10 26L321.90 26.60L321.10 28.20Q321.05 28.30 321 28.50Q320.95 28.70 320.90 28.95Q320.60 29.25 320.50 29.50Q320.25 30.30 319.90 31.13Q319.55 31.95 319.05 32.75Q319 32.85 318.98 32.95Q318.95 33.05 318.85 33.15L317.90 35.55Q317.70 35.60 317.70 35.95Q317.60 36.15 317.45 36.40Q317.30 36.65 317.15 37Q316.90 37.55 316.50 38.27Q316.10 39 315.60 39.85Q315.50 39.95 315.38 40.15Q315.25 40.35 315.05 40.60Q315 40.80 314.88 41Q314.75 41.20 314.60 41.45Q314.55 41.55 314 42.10Q313.95 42.30 313.55 42.60Q313.55 42.65 313.65 42.75L313.75 42.65L313.85 42.75Q313.90 42.70 314.15 42.70Q314.20 42.70 314.38 42.80Q314.55 42.90 314.60 42.90Q314.65 42.90 314.78 42.85Q314.90 42.80 315 42.80Q315.05 42.80 315.10 42.85Q315.80 42.70 316.35 42.70Q316.45 42.70 316.55 42.75L316.75 42.75Q316.90 42.75 317.10 42.60Q317.10 42.65 317.35 42.80L317.35 42.95Q317 43.10 316.90 43.10Q316.80 43.10 316.83 43.05Q316.85 43 316.80 43L315.95 43.15L314.55 43.15Q314.50 43.15 314.43 43.10Q314.35 43.05 314.30 43.05Q314.25 43.05 314.23 43.10Q314.20 43.15 314.15 43.15Q314.10 43.15 314.03 43.10Q313.95 43.05 313.90 43.05L313.55 43.15Q313.50 43.15 313.50 43.10Q313.55 43.05 313.50 43.05L313.30 43.05Q313.10 43.15 313.05 43.25L312.15 44.10Q312 44.25 311.65 44.40Q311.25 44.75 310.25 45.35L310.20 45.35Q310.05 45.35 309.73 45.60Q309.40 45.85 309.20 45.95L308.90 45.95Q308.90 45.95 308.68 46.02Q308.45 46.10 308.35 46.10L308.25 46.10Q308.25 46.05 308.20 46.05Q307.75 46.05 306.90 46.50Q306.90 46.30 306.75 46.30Q306.80 46.30 306.55 46.40Q306.30 46.50 306.35 46.50M312.75 16Q312.40 16 312.10 15.85Q312.10 15.80 312.05 15.75Q312.15 15.65 312.20 15.65L312.70 15.80L312.90 16L312.75 16M313.05 16.05L312.95 15.85L313.05 15.85L313.15 16.05L313.05 16.05M301.90 15.90L301.90 15.90Q301.90 15.90 301.90 15.90M295.30 16.35Q295.30 16.35 295.30 16.35L295.30 16.35M295.35 16.35L295.35 16.35Q295.35 16.35 295.35 16.35M292.95 19.90Q292.95 19.85 292.95 19.90Q292.95 19.90 292.95 19.90M329.50 20.40Q329.50 20.40 329.50 20.40Q329.50 20.40 329.50 20.40L329.50 20.40M304.75 31.35Q304.75 31.35 304.63 31.27Q304.50 31.20 304.50 31.10Q304.70 31.20 304.85 31.20Q304.85 31.35 304.75 31.35M305.75 45.20Q305.85 45.20 305.95 45.15L306.20 45.15Q306.25 45.15 306.30 45.20L306.35 45.20Q306.75 45.20 307.53 44.85Q308.30 44.50 309.45 43.95Q309.50 43.80 309.65 43.75Q309.85 43.55 310.13 43.30Q310.40 43.05 310.80 42.70L310.65 42.60Q310.65 42.70 310.60 42.70Q310.50 42.70 310.40 42.63Q310.30 42.55 310.25 42.55L310.10 42.60Q310 42.60 309.95 42.55L309.80 42.55L308.65 42.20Q308.60 42.20 308.55 42.25L308.50 42.25Q308.45 42.25 308.30 42.17Q308.15 42.10 308.10 42.10L308.05 42.10Q308.05 42.15 307.95 42.15Q307.90 42.15 307.63 42Q307.35 41.85 307.30 41.85Q307.25 41.85 307.25 41.90L307.20 41.90Q306.35 41.90 305.95 41.45Q305.95 41.55 305.90 41.55Q305.85 41.55 305.65 41.45Q305.45 41.35 305.40 41.35L305.30 41.35Q305.30 41.40 305.25 41.40Q305.20 41.40 305 41.30Q304.80 41.20 304.75 41.20L304.70 41.20Q304.65 41.25 304.60 41.25Q304.55 41.25 304.38 41.15Q304.20 41.05 304.15 41.05Q304.05 41.05 304.10 41.10L304.05 41.10L303.75 40.90Q303.70 40.85 303.58 40.85Q303.45 40.85 303.30 40.80Q302.80 40.60 302.68 40.58Q302.55 40.55 302.50 40.55L301.80 40.35Q301.80 40.25 301.75 40.25Q301.70 40.25 301.70 40.30L301.60 40.30Q301.70 40.20 301.30 40.05Q301.30 40.45 301.60 41.15Q301.60 41.15 301.58 41.15Q301.55 41.15 301.50 41.20Q301.60 41.50 301.80 41.80Q301.80 41.80 301.80 41.88Q301.80 41.95 301.75 42.10Q301.85 42.10 301.95 42.20Q301.85 42.30 301.85 42.35L302.45 43.20Q302.45 43.30 302.55 43.50Q303.25 44.20 303.33 44.20Q303.40 44.20 303.45 44.25L303.55 44.25L303.55 44.45L303.60 44.45Q303.65 44.40 303.70 44.40Q303.95 44.70 304.05 44.70Q304.10 44.70 304.05 44.65Q304.05 44.60 304.10 44.60Q304.15 44.60 304.25 44.73Q304.35 44.85 304.40 44.85Q304.55 44.85 304.60 44.80Q304.80 45 304.80 45L304.85 45Q304.85 44.95 304.90 44.95Q304.95 44.95 304.98 45.02Q305 45.10 305.05 45.10L305.30 45.10L305.75 45.20ZM330.25 63.55Q330.05 63.55 329.30 63.30Q329.40 63.25 329.55 63.15Q329.70 63.05 329.90 62.95L329.80 62.80Q329.50 62.70 329.50 62.70Q329.45 62.70 329 62.80Q328.55 62.90 328.45 62.90Q328.40 62.90 328.28 62.85Q328.15 62.80 328.05 62.80Q328 62.80 327.90 62.90Q327.80 63 327.70 63Q327.65 63 327.25 62.95Q326.85 62.90 326.75 62.90Q326.65 62.90 326.65 63Q326.65 63.10 326.55 63.10Q326.50 63.10 326.48 63.03Q326.45 62.95 326.35 62.95Q326.35 62.95 326.30 62.98Q326.25 63 326.20 63Q326.20 62.80 326.15 62.75L326 62.95Q325.75 62.75 325.65 62.75Q325.60 62.75 325.60 62.80L325.50 62.80Q325.40 62.80 325.40 62.75Q325.40 62.70 325.35 62.70Q325.20 62.70 325.20 62.90Q324.80 62.50 324.75 62.50Q324.65 62.50 324.65 62.55L324.60 62.55Q324.50 62.55 324.53 62.42Q324.55 62.30 324.50 62.30Q324.35 62.30 324.30 62.35L324.15 62.35Q324.10 62.35 323.88 62.23Q323.65 62.10 323.60 62.10Q323.50 62.10 323.53 62.15Q323.55 62.20 323.45 62.20Q323.35 62.20 323.30 62.10Q323.25 62 323.15 62Q323.10 62 323.05 62.05Q323 62.10 322.95 62.10Q322.40 62.10 321.50 61.50Q321.40 61.45 320.55 60.60Q320.40 60.55 320.18 60.30Q319.95 60.05 319.50 59.35Q319.30 58.90 319.30 57.30Q319.40 57 319.43 56.50Q319.45 56 319.60 55.35L320.20 54.05L320.55 53.30L321.25 52.05Q321.60 51.85 321.90 51.05Q322.10 50.95 322.32 50.75Q322.55 50.55 322.90 50.30Q323 50.20 323.13 50.02Q323.25 49.85 323.45 49.65Q323.50 49.55 323.55 49.40Q323.60 49.25 323.85 49Q324.05 48.80 324.30 48.63Q324.55 48.45 324.90 47.75Q325.10 47.75 325.90 46.95Q326.10 46.75 326.43 46.45Q326.75 46.15 327.20 45.80L328 44.90Q328.10 44.85 328.28 44.73Q328.45 44.60 328.95 44Q329 44 329.10 43.95Q329.20 43.90 330.10 43.30Q330.55 43.05 331.20 42.45L331.20 42.35Q332 41.80 332.15 41.80L332.25 41.80Q332.25 41.85 332.35 41.85Q332.50 41.85 333.10 41.10L334.80 40.45Q335.05 40.30 335.25 39.85Q335.35 39.80 335.40 39.77Q335.45 39.75 335.45 39.75L335.55 39.75Q335.50 39.80 335.60 39.80Q335.65 39.80 335.82 39.65Q336 39.50 336.05 39.45L337.65 38.75L338.20 38.25L338.90 38.10Q339.30 37.90 339.53 37.83Q339.75 37.75 339.75 37.75Q339.85 37.75 339.85 37.80L339.90 37.80Q340.25 37.80 340.35 37.25Q340.75 37.25 341.20 36.80Q341.45 36.60 342.15 36.30Q342.35 36.30 342.57 36.30Q342.80 36.30 343.15 36.25Q343.25 36.15 343.43 36.08Q343.60 36 344.05 35.95Q344.20 35.85 344.20 35.65Q344.60 35.55 344.80 35.48Q345 35.40 345 35.40L345.10 35.40Q345.10 35.45 345.15 35.45Q345.25 35.45 345.25 35.38Q345.25 35.30 345.30 35.30Q345.40 35.30 345.38 35.35Q345.35 35.40 345.45 35.40Q345.75 35.40 346.40 35.10Q347.55 34.65 347.25 34.65Q347.35 34.65 347.50 34.70Q347.65 34.75 347.70 34.75L347.90 34.75Q348.05 34.50 348.20 34.40Q348.45 34.35 348.80 34.30Q349.15 34.25 349.60 34.15Q349.75 34.20 350.05 34.05L350.15 34.05Q350.20 34.05 350.25 34.10L350.40 34.10L351.60 33.85Q351.85 33.75 351.85 33.65Q352.70 33.45 353.13 33.38Q353.55 33.30 353.45 33.30L353.55 33.30Q353.55 33.35 353.65 33.35Q353.60 33.35 354.10 33.20Q354.40 33.10 355 33.10Q355.15 33.10 355.20 33.30Q355.25 33.30 355.32 33.17Q355.40 33.05 355.50 32.65Q355.60 32.15 355.70 31.52Q355.80 30.90 355.85 30.10L356.10 29.75L356.20 29.15Q356.20 29.10 356.10 28.82Q356 28.55 355.95 28.40L356.10 27.35L355.95 27.10Q355.80 25.75 355.80 24.75Q355.25 23.90 355.05 23.35L354.85 23.10L354.85 23Q354.85 22.70 354.55 22.55Q354.05 22.20 354.03 22.15Q354 22.10 353.90 21.95Q353.45 21.55 352.40 20.90Q352.35 20.90 352.25 20.90Q352.15 20.90 352.05 20.85Q351.70 20.70 350.70 20.55Q350.35 20.50 350.32 20.47Q350.30 20.45 350.20 20.45L349.90 20.45Q349.75 20.50 349.60 20.50Q349.10 20.50 349.25 20.45Q348.85 20.50 348.53 20.52Q348.20 20.55 347.95 20.50Q347.85 20.45 347.78 20.45Q347.70 20.45 347.70 20.45Q347.60 20.45 347.15 20.57Q346.70 20.70 346.60 20.70Q346.60 20.70 346.45 20.70Q346.30 20.70 345.95 20.65Q345.65 20.60 345.35 20.70Q345 20.75 344.90 21L344.70 20.95Q344.60 20.90 344.25 21.15Q343.90 21.40 343.80 21.40Q343.75 21.40 343.75 21.35L343.65 21.35Q343.60 21.35 343.10 21.57Q342.60 21.80 342.50 21.80Q342.40 21.80 342.43 21.75Q342.45 21.70 342.35 21.70Q342.30 21.70 342.18 21.80Q342.05 21.90 341.95 21.90L341.85 21.90Q341.80 21.85 341.75 21.85Q341.80 21.85 341.40 22.13Q341 22.40 340.70 22.40Q340.60 22.40 340.28 22.57Q339.95 22.75 339.85 22.75Q339.65 22.75 339.55 22.70Q339.40 23.20 339.20 23.20Q339.15 23.20 339.15 23.15L339.05 23.15Q339 23.15 339.03 23.20Q339.05 23.25 338.95 23.25L338.90 23.25Q338.90 23.20 338.85 23.20Q338.75 23.20 338.68 23.30Q338.60 23.40 338.50 23.40Q338.40 23.40 338.30 23.32Q338.20 23.25 338.15 23.25Q338.10 23.25 337.35 23.85L337.25 23.85Q337.15 23.85 337.15 23.90Q337.15 23.95 337.10 23.95L336.80 23.90Q336.75 23.95 336.75 24.05L336.35 24.65Q336.25 24.65 335.95 24.80Q335.65 24.95 335.55 24.95L335.40 24.85L335.25 25Q335.15 24.95 334.95 25.20Q334.90 25.25 334.70 25.25Q334.55 25.35 334.15 25.75Q333.70 25.80 333.60 26.10Q333.15 26.25 332.50 26.80Q332.25 27.05 331.90 27.22Q331.55 27.40 330.80 28.15Q330.40 28.25 330.10 28.90Q329.70 29.05 329.15 29.75Q329.15 29.85 328.50 30.50Q328.50 30.70 328.35 30.85Q328.20 31 327.40 31.70Q327.20 32.15 326.80 32.80L326.80 33.25Q326.75 33.20 326.60 33.30Q326.35 33.55 325.80 34.95Q325.65 35.05 325.60 35.13Q325.55 35.20 325.50 35.60L325.35 35.80Q325.40 35.85 325.40 36.15L325.10 36.75Q325.05 36.80 325.30 37.20L325 37.45Q325.10 37.75 325.10 37.90L325.40 38.40Q325 38.40 324.75 38Q324.50 37.60 324.30 37.20Q324.30 37.10 324.25 36.85Q324.20 36.60 324.20 36.55Q324.20 36.45 324.32 35.95Q324.45 35.45 324.45 35.35L324.60 35.05Q324.55 34.90 324.60 34.75Q324.85 34.55 324.98 34Q325.10 33.45 325.15 33.30Q325.65 32.35 325.75 32.35Q325.85 32.35 325.85 32.40Q325.85 32.45 325.95 32.45Q325.95 32.40 326.25 31.75L326.60 31.30Q326.80 31.25 326.95 30.75Q327.30 30.70 327.80 30.05L328.45 29.20Q328.50 29.15 328.57 29.15Q328.65 29.15 328.70 29.10L329.95 27.80L330.30 27.65Q330.45 27.55 330.65 27.32Q330.85 27.10 331.10 26.80Q331.35 26.70 331.75 26.38Q332.15 26.05 333.30 25.15L334.90 24.25Q334.95 24.20 335 24.15Q335.05 24.10 335.10 24.05Q335.30 23.95 335.57 23.85Q335.85 23.75 336.20 23.55Q337.25 22.80 338.20 22.60L338.50 22.15Q339.20 21.65 340.25 21.50Q340.35 21.25 340.68 21.17Q341 21.10 341.05 21.05Q341.50 20.75 341.40 20.75Q341.50 20.75 341.55 20.80L341.70 20.80Q341.90 20.80 342.30 20.55Q342.40 20.45 342.40 20.35Q343.15 20.20 343.45 19.90Q343.85 19.90 344.35 19.75Q344.55 19.75 344.70 19.80Q345.05 19.55 344.90 19.55L344.95 19.55Q344.95 19.60 345.05 19.60Q345.10 19.60 345.32 19.38Q345.55 19.15 345.60 19.10L346.20 19.10L346.35 18.95Q347.20 18.70 347.40 18.70Q347.55 18.70 347.80 18.95Q347.80 18.95 347.90 19.15Q347.95 19.10 348.10 19.02Q348.25 18.95 348.50 18.90Q349.20 18.50 349.70 18.45Q349.80 18.45 349.93 18.38Q350.05 18.30 350.15 18.30Q350.20 18.30 350.55 18.45Q350.90 18.60 351 18.60L351.15 18.45Q351.40 18.55 352.10 18.45Q352.45 18.40 352.63 18.40Q352.80 18.40 352.80 18.40Q352.85 18.40 353.20 18.52Q353.55 18.65 353.65 18.65L354.45 18.65Q354.45 18.70 354.78 19.02Q355.10 19.35 355.30 19.45L355.40 19.45Q355.40 19.40 355.50 19.40Q355.55 19.40 356.05 19.85Q356.55 20.30 356.75 20.40Q356.85 20.55 356.95 20.77Q357.05 21 357.15 21.30Q357.20 21.30 357.40 21.40Q357.40 21.45 357.65 21.95Q357.40 22.10 357.40 22.25Q357.40 22.30 357.50 22.42Q357.60 22.55 357.65 22.65L357.95 23.75Q357.85 24 357.95 24.40Q358 24.60 358.03 24.77Q358.05 24.95 358.05 25.05Q358.05 25.15 357.98 25.50Q357.90 25.85 357.85 26.45Q357.85 26.70 357.82 27.05Q357.80 27.40 357.75 27.90Q357.65 28.15 357.45 30.10Q357.25 30.55 357.20 31.30Q357.10 31.35 356.93 31.73Q356.75 32.10 356.75 32.30Q356.75 32.90 357.15 32.90Q357.40 32.90 357.70 32.60Q357.95 33 357.95 33Q358 33 358.32 32.95Q358.65 32.90 358.90 32.90L359.05 32.75Q359.10 32.75 359.15 32.70L359.45 32.70Q359.45 32.75 359.55 32.75Q359.80 32.75 361.35 30.30Q361.60 30 361.93 29.57Q362.25 29.15 362.75 28.65Q362.80 28.60 362.80 28.35Q362.90 28.35 362.95 28.40Q363.35 28 363.88 27.32Q364.40 26.65 365.05 25.80L365.35 25.60Q365.55 25.35 365.83 24.95Q366.10 24.55 366.45 24.05L368.25 21.80Q368.70 21.35 368.85 21.35L369.05 21.40Q369.10 21.25 369.28 20.97Q369.45 20.70 370.60 19.60Q370.75 19.25 371.10 18.80Q371.55 18.45 372.05 17.70Q372.15 17.60 372.28 17.47Q372.40 17.35 372.60 17.15Q372.95 16.95 373.25 16.70Q373.55 16.45 373.80 16.20Q374.60 15.40 374.75 15.30Q374.95 15.15 375.28 14.80Q375.60 14.45 376.05 13.90Q376.05 13.95 376.10 14Q376.35 13.90 376.90 13.50Q377.05 13.35 377.38 13.05Q377.70 12.75 378.55 12.20L379.05 11.95Q379.15 11.90 379.35 11.85Q379.55 11.80 379.90 11.75Q380 11.75 380.08 11.67Q380.15 11.60 380.25 11.60Q380.80 11.60 381.20 11.85L381.45 12.15L381.70 12.15L381.90 12.80Q381.90 12.85 381.83 13.05Q381.75 13.25 381.75 13.40L381.70 13.40Q381.35 13.40 381.10 14.15L380.90 14Q380.70 14.10 380.48 14.30Q380.25 14.50 379.90 14.75L378.90 15.60Q378.70 15.70 378.45 15.85Q378.20 16 378.25 16.25Q378.10 16.20 378.03 16.17Q377.95 16.15 377.95 16.15Q377.85 16.15 376.85 16.85Q375.95 17.50 376.05 17.85Q375.35 18.40 375.30 18.40Q375.20 18.40 375.20 18.35Q375.20 18.30 375.15 18.30Q375.05 18.30 374.80 18.72Q374.55 19.15 374.45 19.30Q374.30 19.30 374.10 19.10Q373.90 19.30 373.63 19.57Q373.35 19.85 372.95 20.20L372.25 20.80L372.25 20.45L372.45 20.35Q372.55 19.80 372.85 19.80Q372.95 19.80 372.95 19.85L373 19.85Q373 19.85 373.40 19.50L373.45 19.25Q373.90 19.10 373.70 18.75L374.30 18.20L374.30 18.10Q374.30 17.60 375 17.20L375 16.95Q374.90 16.85 374.70 16.85Q374.80 16.85 374.50 16.95Q374.05 17.25 373.70 17.60Q373.20 18 372.50 18.70Q371.80 19.40 370.85 20.35Q370.70 20.50 370.53 20.72Q370.35 20.95 370.15 21.30Q370 21.35 369.80 21.52Q369.60 21.70 369.30 21.95L368.70 22.85Q368.30 23.35 367.88 23.88Q367.45 24.40 367 25.05Q367 25 366.95 24.95Q366.50 25.30 365.95 26.20Q365.70 26.40 365.40 26.65Q365.10 26.90 364.85 27.30L363.70 28.80Q363.45 29.30 363.15 29.67Q362.85 30.05 362.55 30.35Q362.55 30.50 362.50 30.60L361.75 31.40Q361.75 31.50 361.60 31.75Q361.45 31.95 361.30 32.13Q361.15 32.30 360.95 32.40L360.95 32.65L361.05 32.75Q361.15 32.75 361.15 32.65Q361.15 32.65 361.23 32.67Q361.30 32.70 361.50 32.75Q361.55 32.70 361.85 32.70L362.05 32.90L362.25 32.75Q362.40 32.90 362.50 32.90Q362.60 32.90 362.60 32.85Q362.60 32.80 362.65 32.80L362.65 32.80L362.70 32.80L362.65 32.80L363.45 32.95Q363.50 32.95 363.63 33.08Q363.75 33.20 363.80 33.20Q363.90 33.20 363.90 33.15L363.95 33.15Q364.15 33.15 364.35 33.25Q364.55 33.35 365.10 33.80Q365.35 33.65 365.80 33.65Q365.85 33.65 367.05 34.20L367.35 34.80Q367.65 34.80 367.80 34.95L367.80 35.35L367.60 35.35Q367.50 35.40 367.30 35.17Q367.10 34.95 367.05 34.90L364.65 33.70Q361.20 33.25 361.85 33.25Q361.35 33.25 361.20 33.30Q361.30 33.40 361.10 33.40Q361 33.40 360.82 33.33Q360.65 33.25 360.60 33.25Q360.65 33.25 360.40 33.35Q360.35 33.50 360.23 33.73Q360.10 33.95 359.90 34.20Q359.85 34.25 359.75 34.35Q359.65 34.45 359.45 34.55L359.15 35.20Q358.20 36.10 356.60 38.50Q356.25 39.05 355.63 39.73Q355 40.40 355.15 40.65Q355.10 40.65 355 40.55Q354.85 40.70 354.73 40.83Q354.60 40.95 354.30 41.45Q354.25 41.50 354.18 41.55Q354.10 41.60 353.95 41.70Q353.95 41.85 353.90 41.95Q353.40 42.70 352.10 44.20Q351.75 44.80 351 45.95L349.15 48.25Q349 48.30 348.70 48.70Q348.65 49.05 348.50 49.13Q348.35 49.20 348 49.80Q347.75 49.80 347.65 50.20Q347.35 50.35 347.20 50.80L346 52Q345.95 52.15 345.73 52.40Q345.50 52.65 345 53.25Q344.95 53.30 344.95 53.50Q344.90 53.40 344.80 53.50L344 54.30Q343.95 54.50 343.70 54.80Q343.65 54.85 343.35 54.95Q343 55.25 342.90 55.55Q342.45 56 341.15 57Q341.10 57.15 340.25 58Q340.20 58.05 340.15 58.05Q340.10 58.05 340 58.10Q339.40 58.45 338.55 59.35L338.35 59.30Q338.40 59.30 337.98 59.70Q337.55 60.10 336.85 60.35L336.25 60.60Q336.10 60.70 335.85 61.03Q335.60 61.35 335.50 61.35Q335.05 61.35 334.55 61.70L334.35 62.05Q332.70 62.80 332.55 62.80L332.45 62.80Q332.45 62.75 332.35 62.75Q332.30 62.75 331.98 62.98Q331.65 63.20 331.55 63.20L331.50 63.20Q331.50 63.15 331.40 63.15Q331.15 63.30 330.82 63.38Q330.50 63.45 330.25 63.55M358.05 25.05L358.05 25.15Q358.05 25.15 358.05 25.15Q358.05 25.15 358.05 25.05Q358.05 25.05 358.05 25.05M325.55 62Q326.75 62 328.35 61.65Q328.65 61.60 329.50 61.25Q330.35 60.95 330.35 60.95Q330.40 60.95 330.43 61Q330.45 61.05 330.55 61.05Q330.90 60.80 331.45 60.48Q332 60.15 332.35 59.95L332.45 59.95Q332.50 60 332.55 60Q332.80 60 335.15 58.55Q335.70 58.20 336.18 57.90Q336.65 57.60 337.05 57.25Q337.50 56.95 338.18 56.45Q338.85 55.95 339.75 55.25Q340.25 54.85 340.50 54.40Q340.65 54.55 340.60 54.55Q340.70 54.55 340.70 54.48Q340.70 54.40 340.80 54.40Q340.90 54.40 340.90 54.48Q340.90 54.55 341 54.55Q341.05 54.55 341.32 54.20Q341.60 53.85 341.70 53.90L341.95 53.95Q341.95 53.70 342.20 53.45L342.70 53Q342.90 52.65 343 52.58Q343.10 52.50 343.20 52.35L344.70 50.90Q344.90 50.50 345.20 50.15Q345.50 50.05 345.65 49.95Q346.05 49.40 346.68 48.63Q347.30 47.85 348.15 46.85Q348.30 46.80 348.48 46.70Q348.65 46.60 348.85 46.15Q349 46 349.28 45.67Q349.55 45.35 349.60 45Q349.65 45.05 349.75 45.05L350.50 44Q350.95 43.60 351.65 42.85Q351.70 42.85 351.90 42.40Q352.10 42.30 352.30 42.10Q352.55 41.70 352.75 41.45Q352.95 41.20 353.15 41.05L354 39.65Q354.75 39.05 356 37.80Q356.10 37.60 356.23 37.33Q356.35 37.05 356.50 36.70Q356.70 36.55 356.98 36.25Q357.25 35.95 357.45 35.75L357.90 34.85Q358.20 34.70 359.05 33.55L359.05 33.25Q359.05 33.25 358.95 33.33Q358.85 33.40 358.75 33.40Q358.65 33.40 358.20 33.30Q357.75 33.20 357.65 33.20Q356.85 33.20 356.48 33.55Q356.10 33.90 356.05 34.80Q355.95 34.80 355.85 35.20Q355 36.55 354.85 36.65L354.80 36.65Q354.80 36.60 354.75 36.60Q354.60 36.60 354.35 37.65Q354.15 37.70 354.05 38.02Q353.95 38.35 353.75 38.45Q353.65 38.80 353.25 39.15Q353.25 39.35 353.20 39.45Q352.95 39.50 352.90 39.70Q352.85 39.90 352.70 40.05L352.45 40.10Q352.20 40.20 352.20 39.90Q352.20 39.80 352.60 39.20Q353 38.60 353.10 38.35Q353.25 38.15 353.43 37.92Q353.60 37.70 353.80 37.35Q353.90 37.05 354.07 36.67Q354.25 36.30 354.45 35.90Q354.55 35.60 354.70 35.15Q354.85 34.70 355 34.05Q355.15 33.80 355.15 33.75Q355.15 33.65 355.05 33.55Q354.70 33.65 354.23 33.77Q353.75 33.90 353.20 34L353 34Q352.95 34 352.85 34.05Q352.75 34.10 352.70 34.10Q352.60 34.10 352.65 34.05Q352.70 34 352.65 34Q352.55 34 352.13 34.10Q351.70 34.20 351.60 34.20Q351.55 34.40 351.45 34.40Q351.35 34.40 351.30 34.35Q351.25 34.30 351.15 34.30Q351.10 34.50 351.05 34.63Q351 34.75 350.90 34.85Q350.30 34.70 350.40 34.70Q350.30 34.70 350.03 34.85Q349.75 35 349.65 35Q349.50 35 349.35 34.95L348.90 34.95L348.65 35.30Q348.45 35.25 347.85 35.25Q346.40 35.35 346.50 35.90L345.65 35.90Q345.55 35.95 345.48 36.05Q345.40 36.15 345.30 36.15Q345.25 36.15 345.20 36.10L345.10 36.10Q344.95 36.10 343.75 36.60Q343.70 36.70 343.50 36.90L343.15 36.90Q343.05 36.85 342.90 36.85L342.90 36.95Q342.90 37.35 342.55 37.35Q342.35 37.35 342.20 37.15Q342.05 37.25 341.88 37.52Q341.70 37.80 341.60 37.80Q341.50 37.80 341.45 37.75Q341.40 37.70 341.30 37.70Q341.30 37.70 341.13 37.83Q340.95 37.95 340.60 38.20Q340.60 38.30 340.57 38.42Q340.55 38.55 340.50 38.70L340.25 38.70Q340.25 38.65 340.15 38.65Q339.55 38.65 338.75 39.15L338.55 39.45Q338.50 39.45 338.25 39.60Q338.20 39.80 338.05 39.80Q337.95 39.80 337.85 39.75L337.60 39.75Q337.60 39.75 337.30 39.85Q337 40.30 336.70 40.40Q336.40 40.50 336 40.65Q334.85 41.60 334.30 41.60Q334.20 41.60 334.20 41.55L334.15 41.55Q333.40 42.30 333.30 42.30Q333.40 42.55 333.30 42.55L333.15 42.55Q333.10 42.50 332.95 42.50Q332.70 42.50 332.63 42.77Q332.55 43.05 332.45 43.05L332.35 43.05Q332.40 43 332.30 43Q332.20 43 331.85 43.50Q331.55 43.50 331.40 43.55L331.20 43.90Q330.85 44.10 330.60 44.33Q330.35 44.55 330.10 44.75L329.90 44.60Q329.90 44.95 329.60 44.95Q329.55 44.95 329.55 44.90Q329.55 44.85 329.50 44.85Q329.45 44.85 329.05 45.30Q328.95 45.40 328.88 45.55Q328.80 45.70 328.70 45.80Q328.35 45.85 328.20 46Q327.70 46.65 326.35 47.85L326.05 48.55Q325.85 48.70 325.68 48.95Q325.50 49.20 325.25 49.55Q325.10 49.55 324.95 49.60Q324.55 50.10 324.40 50.15Q324.40 50.50 324.20 50.65Q324 50.80 323.75 51Q323.55 51.40 322.90 52.30Q322.80 52.35 322.50 52.65L322.30 53.55L321.50 54.55Q321.50 54.60 321.50 54.73Q321.50 54.85 321.55 55.10Q321.60 55.10 321.20 55.55L321.05 56.10Q320.70 56.60 320.70 56.45Q320.70 56.55 320.78 56.70Q320.85 56.85 320.85 56.90L320.60 58Q320.60 58.55 320.75 59.10Q320.90 59.25 320.95 59.40Q321.20 60.20 322 60.75Q322.15 60.80 322.20 61Q322.60 61.05 323.15 61.60Q323.60 61.60 324.40 61.75Q325.15 61.95 325.30 61.95L325.45 61.95Q325.50 62 325.55 62Z"/></g><g transform="translate(0, 72.5)"><path d=""/></g></g></g></svg>